{
 "asset": {
  "generator": "Khronos glTF Blender I/O v5.2.39",
  "version": "2.0"
 },
 "scene": 0,
 "scenes": [
  {
   "name": "Scene",
   "nodes": [
    0
   ]
  }
 ],
 "nodes": [
  {
   "mesh": 0,
   "name": "Frag_10"
  }
 ],
 "materials": [
  {
   "doubleSided": true,
   "name": "StoneGolem",
   "pbrMetallicRoughness": {
    "metallicFactor": 0,
    "roughnessFactor": 0.8899999856948853,
    "baseColorTexture": {
     "index": 0
    }
   }
  }
 ],
 "meshes": [
  {
   "name": "Body_cell.009",
   "primitives": [
    {
     "attributes": {
      "POSITION": 0,
      "NORMAL": 1,
      "TEXCOORD_0": 2
     },
     "indices": 3,
     "material": 0
    }
   ]
  }
 ],
 "accessors": [
  {
   "bufferView": 0,
   "componentType": 5126,
   "count": 1078,
   "max": [
    0.11026900261640549,
    0.45788079500198364,
    0.010690982453525066
   ],
   "min": [
    -0.10897576063871384,
    0.25236475467681885,
    -0.14541223645210266
   ],
   "type": "VEC3"
  },
  {
   "bufferView": 1,
   "componentType": 5126,
   "count": 1078,
   "type": "VEC3"
  },
  {
   "bufferView": 2,
   "componentType": 5126,
   "count": 1078,
   "type": "VEC2"
  },
  {
   "bufferView": 3,
   "componentType": 5123,
   "count": 3831,
   "type": "SCALAR"
  }
 ],
 "bufferViews": [
  {
   "buffer": 0,
   "byteLength": 12936,
   "byteOffset": 0,
   "target": 34962
  },
  {
   "buffer": 0,
   "byteLength": 12936,
   "byteOffset": 12936,
   "target": 34962
  },
  {
   "buffer": 0,
   "byteLength": 8624,
   "byteOffset": 25872,
   "target": 34962
  },
  {
   "buffer": 0,
   "byteLength": 7662,
   "byteOffset": 34496,
   "target": 34963
  }
 ],
 "buffers": [
  {
   "byteLength": 42160,
   "uri": "Frag_10.bin"
  }
 ],
 "images": [
  {
   "mimeType": "image/png",
   "name": "base_color",
   "uri": "base_color.png"
  }
 ],
 "samplers": [
  {
   "magFilter": 9729,
   "minFilter": 9987
  }
 ],
 "textures": [
  {
   "sampler": 0,
   "source": 0
  }
 ]
}