{
 "asset": {
  "generator": "Khronos glTF Blender I/O v5.2.39",
  "version": "2.0"
 },
 "scene": 0,
 "scenes": [
  {
   "name": "Scene",
   "nodes": [
    0
   ]
  }
 ],
 "nodes": [
  {
   "mesh": 0,
   "name": "Frag_03"
  }
 ],
 "materials": [
  {
   "doubleSided": true,
   "name": "StoneGolem",
   "pbrMetallicRoughness": {
    "metallicFactor": 0,
    "roughnessFactor": 0.8899999856948853,
    "baseColorTexture": {
     "index": 0
    }
   }
  }
 ],
 "meshes": [
  {
   "name": "Body_cell.002",
   "primitives": [
    {
     "attributes": {
      "POSITION": 0,
      "NORMAL": 1,
      "TEXCOORD_0": 2
     },
     "indices": 3,
     "material": 0
    }
   ]
  }
 ],
 "accessors": [
  {
   "bufferView": 0,
   "componentType": 5126,
   "count": 2399,
   "max": [
    0.10322001576423645,
    0.1776403933763504,
    0.19287383556365967
   ],
   "min": [
    -0.2185211330652237,
    -0.2315196543931961,
    -0.07653981447219849
   ],
   "type": "VEC3"
  },
  {
   "bufferView": 1,
   "componentType": 5126,
   "count": 2399,
   "type": "VEC3"
  },
  {
   "bufferView": 2,
   "componentType": 5126,
   "count": 2399,
   "type": "VEC2"
  },
  {
   "bufferView": 3,
   "componentType": 5123,
   "count": 7758,
   "type": "SCALAR"
  }
 ],
 "bufferViews": [
  {
   "buffer": 0,
   "byteLength": 28788,
   "byteOffset": 0,
   "target": 34962
  },
  {
   "buffer": 0,
   "byteLength": 28788,
   "byteOffset": 28788,
   "target": 34962
  },
  {
   "buffer": 0,
   "byteLength": 19192,
   "byteOffset": 57576,
   "target": 34962
  },
  {
   "buffer": 0,
   "byteLength": 15516,
   "byteOffset": 76768,
   "target": 34963
  }
 ],
 "buffers": [
  {
   "byteLength": 92284,
   "uri": "Frag_03.bin"
  }
 ],
 "images": [
  {
   "mimeType": "image/png",
   "name": "base_color",
   "uri": "base_color.png"
  }
 ],
 "samplers": [
  {
   "magFilter": 9729,
   "minFilter": 9987
  }
 ],
 "textures": [
  {
   "sampler": 0,
   "source": 0
  }
 ]
}