{
 "asset": {
  "generator": "Khronos glTF Blender I/O v5.2.39",
  "version": "2.0"
 },
 "scene": 0,
 "scenes": [
  {
   "name": "Scene",
   "nodes": [
    0
   ]
  }
 ],
 "nodes": [
  {
   "mesh": 0,
   "name": "Frag_15"
  }
 ],
 "materials": [
  {
   "doubleSided": true,
   "name": "StoneGolem",
   "pbrMetallicRoughness": {
    "metallicFactor": 0,
    "roughnessFactor": 0.8899999856948853,
    "baseColorTexture": {
     "index": 0
    }
   }
  }
 ],
 "meshes": [
  {
   "name": "Body_cell.014",
   "primitives": [
    {
     "attributes": {
      "POSITION": 0,
      "NORMAL": 1,
      "TEXCOORD_0": 2
     },
     "indices": 3,
     "material": 0
    }
   ]
  }
 ],
 "accessors": [
  {
   "bufferView": 0,
   "componentType": 5126,
   "count": 1210,
   "max": [
    0.09567555040121078,
    0.2882064878940582,
    -0.004413513466715813
   ],
   "min": [
    -0.14352639019489288,
    -0.028204677626490593,
    -0.24168288707733154
   ],
   "type": "VEC3"
  },
  {
   "bufferView": 1,
   "componentType": 5126,
   "count": 1210,
   "type": "VEC3"
  },
  {
   "bufferView": 2,
   "componentType": 5126,
   "count": 1210,
   "type": "VEC2"
  },
  {
   "bufferView": 3,
   "componentType": 5123,
   "count": 4005,
   "type": "SCALAR"
  }
 ],
 "bufferViews": [
  {
   "buffer": 0,
   "byteLength": 14520,
   "byteOffset": 0,
   "target": 34962
  },
  {
   "buffer": 0,
   "byteLength": 14520,
   "byteOffset": 14520,
   "target": 34962
  },
  {
   "buffer": 0,
   "byteLength": 9680,
   "byteOffset": 29040,
   "target": 34962
  },
  {
   "buffer": 0,
   "byteLength": 8010,
   "byteOffset": 38720,
   "target": 34963
  }
 ],
 "buffers": [
  {
   "byteLength": 46732,
   "uri": "Frag_15.bin"
  }
 ],
 "images": [
  {
   "mimeType": "image/png",
   "name": "base_color",
   "uri": "base_color.png"
  }
 ],
 "samplers": [
  {
   "magFilter": 9729,
   "minFilter": 9987
  }
 ],
 "textures": [
  {
   "sampler": 0,
   "source": 0
  }
 ]
}