{
 "asset": {
  "generator": "Khronos glTF Blender I/O v5.2.39",
  "version": "2.0"
 },
 "scene": 0,
 "scenes": [
  {
   "name": "Scene",
   "nodes": [
    0
   ]
  }
 ],
 "nodes": [
  {
   "mesh": 0,
   "name": "Gib_RightForeArm"
  }
 ],
 "materials": [
  {
   "doubleSided": true,
   "name": "StoneGolem",
   "pbrMetallicRoughness": {
    "metallicFactor": 0,
    "roughnessFactor": 0.8899999856948853,
    "baseColorTexture": {
     "index": 0
    }
   }
  }
 ],
 "meshes": [
  {
   "name": "mesh.009",
   "primitives": [
    {
     "attributes": {
      "POSITION": 0,
      "NORMAL": 1,
      "TEXCOORD_0": 2
     },
     "indices": 3,
     "material": 0
    }
   ]
  }
 ],
 "accessors": [
  {
   "bufferView": 0,
   "componentType": 5126,
   "count": 8339,
   "max": [
    0.2167389839887619,
    0.8001495003700256,
    0.15613584220409393
   ],
   "min": [
    -0.22475002706050873,
    -1.1082738637924194e-07,
    -0.21376162767410278
   ],
   "type": "VEC3"
  },
  {
   "bufferView": 1,
   "componentType": 5126,
   "count": 8339,
   "type": "VEC3"
  },
  {
   "bufferView": 2,
   "componentType": 5126,
   "count": 8339,
   "type": "VEC2"
  },
  {
   "bufferView": 3,
   "componentType": 5123,
   "count": 44748,
   "type": "SCALAR"
  }
 ],
 "bufferViews": [
  {
   "buffer": 0,
   "byteLength": 100068,
   "byteOffset": 0,
   "target": 34962
  },
  {
   "buffer": 0,
   "byteLength": 100068,
   "byteOffset": 100068,
   "target": 34962
  },
  {
   "buffer": 0,
   "byteLength": 66712,
   "byteOffset": 200136,
   "target": 34962
  },
  {
   "buffer": 0,
   "byteLength": 89496,
   "byteOffset": 266848,
   "target": 34963
  }
 ],
 "buffers": [
  {
   "byteLength": 356344,
   "uri": "Gib_RightForeArm.bin"
  }
 ],
 "images": [
  {
   "mimeType": "image/png",
   "name": "base_color",
   "uri": "base_color.png"
  }
 ],
 "samplers": [
  {
   "magFilter": 9729,
   "minFilter": 9987
  }
 ],
 "textures": [
  {
   "sampler": 0,
   "source": 0
  }
 ]
}