{
 "asset": {
  "generator": "Khronos glTF Blender I/O v5.2.39",
  "version": "2.0"
 },
 "scene": 0,
 "scenes": [
  {
   "name": "Scene",
   "nodes": [
    31
   ]
  }
 ],
 "nodes": [
  {
   "name": "mixamorig:LeftToe_End",
   "rotation": [
    -7.566995918750763e-10,
    4.927569534629583e-07,
    2.735760062932968e-08,
    1
   ],
   "translation": [
    4.470348358154297e-08,
    0.11453547328710556,
    -1.4976831153035164e-07
   ]
  },
  {
   "children": [
    0
   ],
   "name": "mixamorig:LeftToeBase",
   "rotation": [
    0.40887466073036194,
    0.01082842517644167,
    -0.004850718192756176,
    0.9125134348869324
   ],
   "scale": [
    1.0000001192092896,
    1,
    1.0000001192092896
   ],
   "translation": [
    -2.2351741790771484e-08,
    0.21978440880775452,
    7.450580596923828e-08
   ]
  },
  {
   "children": [
    1
   ],
   "name": "mixamorig:LeftFoot",
   "rotation": [
    0.3767087757587433,
    -0.16878286004066467,
    0.0700194239616394,
    0.9081299901008606
   ],
   "translation": [
    -5.851325113326311e-08,
    0.4944627583026886,
    -2.7939677238464355e-09
   ]
  },
  {
   "children": [
    2
   ],
   "name": "mixamorig:LeftLeg",
   "rotation": [
    -0.06336697190999985,
    0.00021469069179147482,
    -0.0034634373150765896,
    0.9979842901229858
   ],
   "scale": [
    1,
    0.9999999403953552,
    0.9999999403953552
   ],
   "translation": [
    -1.0495568858459592e-08,
    0.4595904052257538,
    7.47536432754714e-09
   ]
  },
  {
   "children": [
    3
   ],
   "name": "mixamorig:LeftUpLeg",
   "rotation": [
    -0.0016610733000561595,
    -0.03763978183269501,
    -0.9983115196228027,
    0.04421091452240944
   ],
   "scale": [
    0.9999997615814209,
    1,
    0.9999998211860657
   ],
   "translation": [
    0.1378713995218277,
    -0.05583006516098976,
    -0.019559884443879128
   ]
  },
  {
   "name": "mixamorig:RightToe_End",
   "rotation": [
    5.918554961681366e-07,
    3.955792635679245e-07,
    -5.301553755998611e-07,
    1
   ],
   "scale": [
    1,
    0.9999999403953552,
    1
   ],
   "translation": [
    4.470348358154297e-08,
    0.1346476972103119,
    2.3283064365386963e-08
   ]
  },
  {
   "children": [
    5
   ],
   "name": "mixamorig:RightToeBase",
   "rotation": [
    0.3738133907318115,
    -0.003028293838724494,
    0.0012178082251921296,
    0.9274982213973999
   ],
   "scale": [
    1,
    0.9999999403953552,
    0.9999998807907104
   ],
   "translation": [
    -4.0978193283081055e-08,
    0.23655176162719727,
    8.940696716308594e-08
   ]
  },
  {
   "children": [
    6
   ],
   "name": "mixamorig:RightFoot",
   "rotation": [
    0.4381636083126068,
    0.13364963233470917,
    -0.06606615334749222,
    0.8864455819129944
   ],
   "scale": [
    1,
    0.9999999403953552,
    0.9999999403953552
   ],
   "translation": [
    3.1504896469414234e-08,
    0.4968189299106598,
    2.3283064365386963e-10
   ]
  },
  {
   "children": [
    7
   ],
   "name": "mixamorig:RightLeg",
   "rotation": [
    -0.10166697949171066,
    -0.0003099198511335999,
    0.0030633914284408092,
    0.9948137402534485
   ],
   "scale": [
    0.9999999403953552,
    0.9999999403953552,
    1.0000001192092896
   ],
   "translation": [
    -2.075103111565113e-08,
    0.46027958393096924,
    -4.661160346586257e-11
   ]
  },
  {
   "children": [
    8
   ],
   "name": "mixamorig:RightUpLeg",
   "rotation": [
    -0.002056816825643182,
    0.04655809700489044,
    0.997938334941864,
    0.04412688687443733
   ],
   "scale": [
    1.0000026226043701,
    0.9999999403953552,
    1.0000028610229492
   ],
   "translation": [
    -0.13787129521369934,
    -0.05583007261157036,
    0.005287423729896545
   ]
  },
  {
   "name": "mixamorig:LeftHand",
   "rotation": [
    3.958120942115784e-09,
    -2.360902726650238e-07,
    -3.3527612686157227e-08,
    1
   ],
   "translation": [
    6.332993507385254e-08,
    0.7664279341697693,
    -1.6298145055770874e-07
   ]
  },
  {
   "children": [
    10
   ],
   "name": "mixamorig:LeftForeArm",
   "rotation": [
    0.1430121660232544,
    0.01740448549389839,
    0.1195550262928009,
    0.9823192954063416
   ],
   "scale": [
    1,
    0.9999999403953552,
    0.9999998807907104
   ],
   "translation": [
    3.725290298461914e-09,
    0.3108735680580139,
    1.434236764907837e-07
   ]
  },
  {
   "children": [
    11
   ],
   "name": "mixamorig:LeftArm",
   "rotation": [
    0.3673233091831207,
    0.11024994403123856,
    -0.04390008747577667,
    0.9224919080734253
   ],
   "scale": [
    0.9999999403953552,
    1,
    1
   ],
   "translation": [
    -3.050081431865692e-08,
    0.2018289417028427,
    8.37608240544796e-08
   ]
  },
  {
   "children": [
    12
   ],
   "name": "mixamorig:LeftShoulder",
   "rotation": [
    0.591294527053833,
    0.39160892367362976,
    -0.5843120217323303,
    0.39445236325263977
   ],
   "scale": [
    0.999999463558197,
    0.9999996423721313,
    0.9999998807907104
   ],
   "translation": [
    0.09227801859378815,
    0.1225837916135788,
    0.001226824359036982
   ]
  },
  {
   "name": "mixamorig:HeadTop_End",
   "rotation": [
    2.6469779601696886e-23,
    -3.920115787536815e-09,
    0,
    1
   ],
   "translation": [
    -1.1510110642376503e-09,
    0.16813242435455322,
    0.020263073965907097
   ]
  },
  {
   "children": [
    14
   ],
   "name": "mixamorig:Head",
   "rotation": [
    2.7497151222632965e-09,
    -8.044465005241364e-08,
    -1.2045742363780499e-15,
    1
   ],
   "translation": [
    -3.2353400514217867e-10,
    0.03638906031847,
    0.004385558422654867
   ]
  },
  {
   "children": [
    15
   ],
   "name": "mixamorig:Neck",
   "rotation": [
    0.015152271836996078,
    5.699531158143145e-08,
    2.4464801295920324e-09,
    0.9998852014541626
   ],
   "scale": [
    1,
    1,
    0.9999999403953552
   ],
   "translation": [
    -2.1697619256855205e-09,
    0.15007266402244568,
    2.1397943417156284e-09
   ]
  },
  {
   "name": "mixamorig:RightHand",
   "rotation": [
    -9.98552494024807e-08,
    -1.2660167385547538e-06,
    1.3562385881016326e-08,
    1
   ],
   "scale": [
    0.9999999403953552,
    1,
    0.9999999403953552
   ],
   "translation": [
    -9.313225746154785e-10,
    0.7653542757034302,
    2.9802322387695312e-08
   ]
  },
  {
   "children": [
    17
   ],
   "name": "mixamorig:RightForeArm",
   "rotation": [
    0.12229737639427185,
    -0.01669447124004364,
    -0.1342262178659439,
    0.9832334518432617
   ],
   "translation": [
    7.450580596923828e-09,
    0.312298059463501,
    -4.842877388000488e-08
   ]
  },
  {
   "children": [
    18
   ],
   "name": "mixamorig:RightArm",
   "rotation": [
    0.3834120035171509,
    -0.15752945840358734,
    0.06654664129018784,
    0.9076074361801147
   ],
   "scale": [
    0.9999999403953552,
    0.9999998807907104,
    0.9999999403953552
   ],
   "translation": [
    4.7963112592697144e-08,
    0.20365972816944122,
    -1.061052898876369e-07
   ]
  },
  {
   "children": [
    19
   ],
   "name": "mixamorig:RightShoulder",
   "rotation": [
    0.6268089413642883,
    -0.36640074849128723,
    0.5460643172264099,
    0.41794127225875854
   ],
   "scale": [
    1.0000001192092896,
    1.0000001192092896,
    0.9999999403953552
   ],
   "translation": [
    -0.09227796643972397,
    0.12222839891910553,
    0.012940319254994392
   ]
  },
  {
   "children": [
    13,
    16,
    20
   ],
   "name": "mixamorig:Spine2",
   "rotation": [
    -6.519258910486769e-09,
    7.014115510628471e-09,
    -2.3326382100921053e-16,
    1
   ],
   "scale": [
    1,
    0.9999999403953552,
    0.9999999403953552
   ],
   "translation": [
    -5.1601756201336e-10,
    0.1333981305360794,
    -1.0215939205693303e-11
   ]
  },
  {
   "children": [
    21
   ],
   "name": "mixamorig:Spine1",
   "rotation": [
    1.0244549208948683e-08,
    -4.932715569339052e-08,
    8.55372516015611e-16,
    1
   ],
   "scale": [
    1,
    0.9999999403953552,
    0.9999999403953552
   ],
   "translation": [
    -9.095555419946777e-10,
    0.11672317236661911,
    -7.832698933896154e-10
   ]
  },
  {
   "children": [
    22
   ],
   "name": "mixamorig:Spine",
   "rotation": [
    -0.015152275562286377,
    7.079093222728261e-08,
    -1.7922821005100786e-09,
    0.9998852014541626
   ],
   "translation": [
    1.1815888267818764e-09,
    0.10000266879796982,
    -0.0030315895564854145
   ]
  },
  {
   "children": [
    4,
    9,
    23
   ],
   "name": "mixamorig:Hips",
   "rotation": [
    -1.1080249606720827e-07,
    2.3742829924344733e-08,
    -2.4311637060881863e-15,
    1
   ],
   "translation": [
    0.020484797656536102,
    0.22936443984508514,
    -0.021851524710655212
   ]
  },
  {
   "mesh": 0,
   "name": "Body",
   "skin": 0
  },
  {
   "mesh": 1,
   "name": "Part_Head",
   "skin": 0
  },
  {
   "mesh": 2,
   "name": "Part_LeftForeArm",
   "skin": 0
  },
  {
   "mesh": 3,
   "name": "Part_LeftLeg",
   "skin": 0
  },
  {
   "mesh": 4,
   "name": "Part_RightForeArm",
   "skin": 0
  },
  {
   "mesh": 5,
   "name": "Part_RightLeg",
   "skin": 0
  },
  {
   "children": [
    25,
    26,
    27,
    28,
    29,
    30,
    24
   ],
   "name": "Armature"
  }
 ],
 "animations": [
  {
   "channels": [
    {
     "sampler": 0,
     "target": {
      "node": 24,
      "path": "translation"
     }
    },
    {
     "sampler": 1,
     "target": {
      "node": 24,
      "path": "rotation"
     }
    },
    {
     "sampler": 2,
     "target": {
      "node": 24,
      "path": "scale"
     }
    },
    {
     "sampler": 3,
     "target": {
      "node": 4,
      "path": "translation"
     }
    },
    {
     "sampler": 4,
     "target": {
      "node": 4,
      "path": "rotation"
     }
    },
    {
     "sampler": 5,
     "target": {
      "node": 4,
      "path": "scale"
     }
    },
    {
     "sampler": 6,
     "target": {
      "node": 3,
      "path": "translation"
     }
    },
    {
     "sampler": 7,
     "target": {
      "node": 3,
      "path": "rotation"
     }
    },
    {
     "sampler": 8,
     "target": {
      "node": 3,
      "path": "scale"
     }
    },
    {
     "sampler": 9,
     "target": {
      "node": 2,
      "path": "translation"
     }
    },
    {
     "sampler": 10,
     "target": {
      "node": 2,
      "path": "rotation"
     }
    },
    {
     "sampler": 11,
     "target": {
      "node": 2,
      "path": "scale"
     }
    },
    {
     "sampler": 12,
     "target": {
      "node": 1,
      "path": "translation"
     }
    },
    {
     "sampler": 13,
     "target": {
      "node": 1,
      "path": "rotation"
     }
    },
    {
     "sampler": 14,
     "target": {
      "node": 1,
      "path": "scale"
     }
    },
    {
     "sampler": 15,
     "target": {
      "node": 0,
      "path": "translation"
     }
    },
    {
     "sampler": 16,
     "target": {
      "node": 0,
      "path": "rotation"
     }
    },
    {
     "sampler": 17,
     "target": {
      "node": 0,
      "path": "scale"
     }
    },
    {
     "sampler": 18,
     "target": {
      "node": 9,
      "path": "translation"
     }
    },
    {
     "sampler": 19,
     "target": {
      "node": 9,
      "path": "rotation"
     }
    },
    {
     "sampler": 20,
     "target": {
      "node": 9,
      "path": "scale"
     }
    },
    {
     "sampler": 21,
     "target": {
      "node": 8,
      "path": "translation"
     }
    },
    {
     "sampler": 22,
     "target": {
      "node": 8,
      "path": "rotation"
     }
    },
    {
     "sampler": 23,
     "target": {
      "node": 8,
      "path": "scale"
     }
    },
    {
     "sampler": 24,
     "target": {
      "node": 7,
      "path": "translation"
     }
    },
    {
     "sampler": 25,
     "target": {
      "node": 7,
      "path": "rotation"
     }
    },
    {
     "sampler": 26,
     "target": {
      "node": 7,
      "path": "scale"
     }
    },
    {
     "sampler": 27,
     "target": {
      "node": 6,
      "path": "translation"
     }
    },
    {
     "sampler": 28,
     "target": {
      "node": 6,
      "path": "rotation"
     }
    },
    {
     "sampler": 29,
     "target": {
      "node": 6,
      "path": "scale"
     }
    },
    {
     "sampler": 30,
     "target": {
      "node": 5,
      "path": "translation"
     }
    },
    {
     "sampler": 31,
     "target": {
      "node": 5,
      "path": "rotation"
     }
    },
    {
     "sampler": 32,
     "target": {
      "node": 5,
      "path": "scale"
     }
    },
    {
     "sampler": 33,
     "target": {
      "node": 23,
      "path": "translation"
     }
    },
    {
     "sampler": 34,
     "target": {
      "node": 23,
      "path": "rotation"
     }
    },
    {
     "sampler": 35,
     "target": {
      "node": 23,
      "path": "scale"
     }
    },
    {
     "sampler": 36,
     "target": {
      "node": 22,
      "path": "translation"
     }
    },
    {
     "sampler": 37,
     "target": {
      "node": 22,
      "path": "rotation"
     }
    },
    {
     "sampler": 38,
     "target": {
      "node": 22,
      "path": "scale"
     }
    },
    {
     "sampler": 39,
     "target": {
      "node": 21,
      "path": "translation"
     }
    },
    {
     "sampler": 40,
     "target": {
      "node": 21,
      "path": "rotation"
     }
    },
    {
     "sampler": 41,
     "target": {
      "node": 21,
      "path": "scale"
     }
    },
    {
     "sampler": 42,
     "target": {
      "node": 13,
      "path": "translation"
     }
    },
    {
     "sampler": 43,
     "target": {
      "node": 13,
      "path": "rotation"
     }
    },
    {
     "sampler": 44,
     "target": {
      "node": 13,
      "path": "scale"
     }
    },
    {
     "sampler": 45,
     "target": {
      "node": 12,
      "path": "translation"
     }
    },
    {
     "sampler": 46,
     "target": {
      "node": 12,
      "path": "rotation"
     }
    },
    {
     "sampler": 47,
     "target": {
      "node": 12,
      "path": "scale"
     }
    },
    {
     "sampler": 48,
     "target": {
      "node": 11,
      "path": "translation"
     }
    },
    {
     "sampler": 49,
     "target": {
      "node": 11,
      "path": "rotation"
     }
    },
    {
     "sampler": 50,
     "target": {
      "node": 11,
      "path": "scale"
     }
    },
    {
     "sampler": 51,
     "target": {
      "node": 10,
      "path": "translation"
     }
    },
    {
     "sampler": 52,
     "target": {
      "node": 10,
      "path": "rotation"
     }
    },
    {
     "sampler": 53,
     "target": {
      "node": 10,
      "path": "scale"
     }
    },
    {
     "sampler": 54,
     "target": {
      "node": 16,
      "path": "translation"
     }
    },
    {
     "sampler": 55,
     "target": {
      "node": 16,
      "path": "rotation"
     }
    },
    {
     "sampler": 56,
     "target": {
      "node": 16,
      "path": "scale"
     }
    },
    {
     "sampler": 57,
     "target": {
      "node": 15,
      "path": "translation"
     }
    },
    {
     "sampler": 58,
     "target": {
      "node": 15,
      "path": "rotation"
     }
    },
    {
     "sampler": 59,
     "target": {
      "node": 15,
      "path": "scale"
     }
    },
    {
     "sampler": 60,
     "target": {
      "node": 14,
      "path": "translation"
     }
    },
    {
     "sampler": 61,
     "target": {
      "node": 14,
      "path": "rotation"
     }
    },
    {
     "sampler": 62,
     "target": {
      "node": 14,
      "path": "scale"
     }
    },
    {
     "sampler": 63,
     "target": {
      "node": 20,
      "path": "translation"
     }
    },
    {
     "sampler": 64,
     "target": {
      "node": 20,
      "path": "rotation"
     }
    },
    {
     "sampler": 65,
     "target": {
      "node": 20,
      "path": "scale"
     }
    },
    {
     "sampler": 66,
     "target": {
      "node": 19,
      "path": "translation"
     }
    },
    {
     "sampler": 67,
     "target": {
      "node": 19,
      "path": "rotation"
     }
    },
    {
     "sampler": 68,
     "target": {
      "node": 19,
      "path": "scale"
     }
    },
    {
     "sampler": 69,
     "target": {
      "node": 18,
      "path": "translation"
     }
    },
    {
     "sampler": 70,
     "target": {
      "node": 18,
      "path": "rotation"
     }
    },
    {
     "sampler": 71,
     "target": {
      "node": 18,
      "path": "scale"
     }
    },
    {
     "sampler": 72,
     "target": {
      "node": 17,
      "path": "translation"
     }
    },
    {
     "sampler": 73,
     "target": {
      "node": 17,
      "path": "rotation"
     }
    },
    {
     "sampler": 74,
     "target": {
      "node": 17,
      "path": "scale"
     }
    }
   ],
   "name": "fall",
   "samplers": [
    {
     "input": 37,
     "interpolation": "LINEAR",
     "output": 38
    },
    {
     "input": 37,
     "interpolation": "LINEAR",
     "output": 39
    },
    {
     "input": 40,
     "interpolation": "LINEAR",
     "output": 41
    },
    {
     "input": 40,
     "interpolation": "LINEAR",
     "output": 42
    },
    {
     "input": 37,
     "interpolation": "LINEAR",
     "output": 43
    },
    {
     "input": 40,
     "interpolation": "STEP",
     "output": 44
    },
    {
     "input": 40,
     "interpolation": "LINEAR",
     "output": 45
    },
    {
     "input": 37,
     "interpolation": "LINEAR",
     "output": 46
    },
    {
     "input": 40,
     "interpolation": "LINEAR",
     "output": 47
    },
    {
     "input": 40,
     "interpolation": "LINEAR",
     "output": 48
    },
    {
     "input": 37,
     "interpolation": "LINEAR",
     "output": 49
    },
    {
     "input": 40,
     "interpolation": "LINEAR",
     "output": 50
    },
    {
     "input": 40,
     "interpolation": "LINEAR",
     "output": 51
    },
    {
     "input": 37,
     "interpolation": "LINEAR",
     "output": 52
    },
    {
     "input": 40,
     "interpolation": "LINEAR",
     "output": 53
    },
    {
     "input": 40,
     "interpolation": "LINEAR",
     "output": 54
    },
    {
     "input": 40,
     "interpolation": "LINEAR",
     "output": 55
    },
    {
     "input": 40,
     "interpolation": "STEP",
     "output": 56
    },
    {
     "input": 40,
     "interpolation": "LINEAR",
     "output": 57
    },
    {
     "input": 37,
     "interpolation": "LINEAR",
     "output": 58
    },
    {
     "input": 40,
     "interpolation": "LINEAR",
     "output": 59
    },
    {
     "input": 40,
     "interpolation": "LINEAR",
     "output": 60
    },
    {
     "input": 37,
     "interpolation": "LINEAR",
     "output": 61
    },
    {
     "input": 40,
     "interpolation": "LINEAR",
     "output": 62
    },
    {
     "input": 40,
     "interpolation": "LINEAR",
     "output": 63
    },
    {
     "input": 37,
     "interpolation": "LINEAR",
     "output": 64
    },
    {
     "input": 40,
     "interpolation": "LINEAR",
     "output": 65
    },
    {
     "input": 40,
     "interpolation": "LINEAR",
     "output": 66
    },
    {
     "input": 37,
     "interpolation": "LINEAR",
     "output": 67
    },
    {
     "input": 40,
     "interpolation": "LINEAR",
     "output": 68
    },
    {
     "input": 40,
     "interpolation": "LINEAR",
     "output": 69
    },
    {
     "input": 40,
     "interpolation": "LINEAR",
     "output": 70
    },
    {
     "input": 40,
     "interpolation": "STEP",
     "output": 71
    },
    {
     "input": 40,
     "interpolation": "LINEAR",
     "output": 72
    },
    {
     "input": 37,
     "interpolation": "LINEAR",
     "output": 73
    },
    {
     "input": 40,
     "interpolation": "LINEAR",
     "output": 74
    },
    {
     "input": 40,
     "interpolation": "LINEAR",
     "output": 75
    },
    {
     "input": 37,
     "interpolation": "LINEAR",
     "output": 76
    },
    {
     "input": 40,
     "interpolation": "LINEAR",
     "output": 77
    },
    {
     "input": 40,
     "interpolation": "LINEAR",
     "output": 78
    },
    {
     "input": 37,
     "interpolation": "LINEAR",
     "output": 79
    },
    {
     "input": 40,
     "interpolation": "LINEAR",
     "output": 80
    },
    {
     "input": 40,
     "interpolation": "LINEAR",
     "output": 81
    },
    {
     "input": 37,
     "interpolation": "LINEAR",
     "output": 82
    },
    {
     "input": 40,
     "interpolation": "LINEAR",
     "output": 83
    },
    {
     "input": 40,
     "interpolation": "LINEAR",
     "output": 84
    },
    {
     "input": 37,
     "interpolation": "LINEAR",
     "output": 85
    },
    {
     "input": 40,
     "interpolation": "LINEAR",
     "output": 86
    },
    {
     "input": 40,
     "interpolation": "LINEAR",
     "output": 87
    },
    {
     "input": 37,
     "interpolation": "LINEAR",
     "output": 88
    },
    {
     "input": 40,
     "interpolation": "LINEAR",
     "output": 89
    },
    {
     "input": 40,
     "interpolation": "LINEAR",
     "output": 90
    },
    {
     "input": 40,
     "interpolation": "LINEAR",
     "output": 91
    },
    {
     "input": 40,
     "interpolation": "STEP",
     "output": 92
    },
    {
     "input": 40,
     "interpolation": "LINEAR",
     "output": 93
    },
    {
     "input": 37,
     "interpolation": "LINEAR",
     "output": 94
    },
    {
     "input": 40,
     "interpolation": "LINEAR",
     "output": 95
    },
    {
     "input": 40,
     "interpolation": "LINEAR",
     "output": 96
    },
    {
     "input": 37,
     "interpolation": "LINEAR",
     "output": 97
    },
    {
     "input": 40,
     "interpolation": "LINEAR",
     "output": 98
    },
    {
     "input": 40,
     "interpolation": "LINEAR",
     "output": 99
    },
    {
     "input": 40,
     "interpolation": "LINEAR",
     "output": 100
    },
    {
     "input": 40,
     "interpolation": "LINEAR",
     "output": 101
    },
    {
     "input": 40,
     "interpolation": "LINEAR",
     "output": 102
    },
    {
     "input": 37,
     "interpolation": "LINEAR",
     "output": 103
    },
    {
     "input": 40,
     "interpolation": "LINEAR",
     "output": 104
    },
    {
     "input": 40,
     "interpolation": "LINEAR",
     "output": 105
    },
    {
     "input": 37,
     "interpolation": "LINEAR",
     "output": 106
    },
    {
     "input": 40,
     "interpolation": "LINEAR",
     "output": 107
    },
    {
     "input": 40,
     "interpolation": "LINEAR",
     "output": 108
    },
    {
     "input": 37,
     "interpolation": "LINEAR",
     "output": 109
    },
    {
     "input": 40,
     "interpolation": "LINEAR",
     "output": 110
    },
    {
     "input": 40,
     "interpolation": "LINEAR",
     "output": 111
    },
    {
     "input": 40,
     "interpolation": "LINEAR",
     "output": 112
    },
    {
     "input": 40,
     "interpolation": "LINEAR",
     "output": 113
    }
   ]
  },
  {
   "channels": [
    {
     "sampler": 0,
     "target": {
      "node": 24,
      "path": "translation"
     }
    },
    {
     "sampler": 1,
     "target": {
      "node": 24,
      "path": "rotation"
     }
    },
    {
     "sampler": 2,
     "target": {
      "node": 24,
      "path": "scale"
     }
    },
    {
     "sampler": 3,
     "target": {
      "node": 4,
      "path": "translation"
     }
    },
    {
     "sampler": 4,
     "target": {
      "node": 4,
      "path": "rotation"
     }
    },
    {
     "sampler": 5,
     "target": {
      "node": 4,
      "path": "scale"
     }
    },
    {
     "sampler": 6,
     "target": {
      "node": 3,
      "path": "translation"
     }
    },
    {
     "sampler": 7,
     "target": {
      "node": 3,
      "path": "rotation"
     }
    },
    {
     "sampler": 8,
     "target": {
      "node": 3,
      "path": "scale"
     }
    },
    {
     "sampler": 9,
     "target": {
      "node": 2,
      "path": "translation"
     }
    },
    {
     "sampler": 10,
     "target": {
      "node": 2,
      "path": "rotation"
     }
    },
    {
     "sampler": 11,
     "target": {
      "node": 2,
      "path": "scale"
     }
    },
    {
     "sampler": 12,
     "target": {
      "node": 1,
      "path": "translation"
     }
    },
    {
     "sampler": 13,
     "target": {
      "node": 1,
      "path": "rotation"
     }
    },
    {
     "sampler": 14,
     "target": {
      "node": 1,
      "path": "scale"
     }
    },
    {
     "sampler": 15,
     "target": {
      "node": 0,
      "path": "translation"
     }
    },
    {
     "sampler": 16,
     "target": {
      "node": 0,
      "path": "rotation"
     }
    },
    {
     "sampler": 17,
     "target": {
      "node": 0,
      "path": "scale"
     }
    },
    {
     "sampler": 18,
     "target": {
      "node": 9,
      "path": "translation"
     }
    },
    {
     "sampler": 19,
     "target": {
      "node": 9,
      "path": "rotation"
     }
    },
    {
     "sampler": 20,
     "target": {
      "node": 9,
      "path": "scale"
     }
    },
    {
     "sampler": 21,
     "target": {
      "node": 8,
      "path": "translation"
     }
    },
    {
     "sampler": 22,
     "target": {
      "node": 8,
      "path": "rotation"
     }
    },
    {
     "sampler": 23,
     "target": {
      "node": 8,
      "path": "scale"
     }
    },
    {
     "sampler": 24,
     "target": {
      "node": 7,
      "path": "translation"
     }
    },
    {
     "sampler": 25,
     "target": {
      "node": 7,
      "path": "rotation"
     }
    },
    {
     "sampler": 26,
     "target": {
      "node": 7,
      "path": "scale"
     }
    },
    {
     "sampler": 27,
     "target": {
      "node": 6,
      "path": "translation"
     }
    },
    {
     "sampler": 28,
     "target": {
      "node": 6,
      "path": "rotation"
     }
    },
    {
     "sampler": 29,
     "target": {
      "node": 6,
      "path": "scale"
     }
    },
    {
     "sampler": 30,
     "target": {
      "node": 5,
      "path": "translation"
     }
    },
    {
     "sampler": 31,
     "target": {
      "node": 5,
      "path": "rotation"
     }
    },
    {
     "sampler": 32,
     "target": {
      "node": 5,
      "path": "scale"
     }
    },
    {
     "sampler": 33,
     "target": {
      "node": 23,
      "path": "translation"
     }
    },
    {
     "sampler": 34,
     "target": {
      "node": 23,
      "path": "rotation"
     }
    },
    {
     "sampler": 35,
     "target": {
      "node": 23,
      "path": "scale"
     }
    },
    {
     "sampler": 36,
     "target": {
      "node": 22,
      "path": "translation"
     }
    },
    {
     "sampler": 37,
     "target": {
      "node": 22,
      "path": "rotation"
     }
    },
    {
     "sampler": 38,
     "target": {
      "node": 22,
      "path": "scale"
     }
    },
    {
     "sampler": 39,
     "target": {
      "node": 21,
      "path": "translation"
     }
    },
    {
     "sampler": 40,
     "target": {
      "node": 21,
      "path": "rotation"
     }
    },
    {
     "sampler": 41,
     "target": {
      "node": 21,
      "path": "scale"
     }
    },
    {
     "sampler": 42,
     "target": {
      "node": 13,
      "path": "translation"
     }
    },
    {
     "sampler": 43,
     "target": {
      "node": 13,
      "path": "rotation"
     }
    },
    {
     "sampler": 44,
     "target": {
      "node": 13,
      "path": "scale"
     }
    },
    {
     "sampler": 45,
     "target": {
      "node": 12,
      "path": "translation"
     }
    },
    {
     "sampler": 46,
     "target": {
      "node": 12,
      "path": "rotation"
     }
    },
    {
     "sampler": 47,
     "target": {
      "node": 12,
      "path": "scale"
     }
    },
    {
     "sampler": 48,
     "target": {
      "node": 11,
      "path": "translation"
     }
    },
    {
     "sampler": 49,
     "target": {
      "node": 11,
      "path": "rotation"
     }
    },
    {
     "sampler": 50,
     "target": {
      "node": 11,
      "path": "scale"
     }
    },
    {
     "sampler": 51,
     "target": {
      "node": 10,
      "path": "translation"
     }
    },
    {
     "sampler": 52,
     "target": {
      "node": 10,
      "path": "rotation"
     }
    },
    {
     "sampler": 53,
     "target": {
      "node": 10,
      "path": "scale"
     }
    },
    {
     "sampler": 54,
     "target": {
      "node": 16,
      "path": "translation"
     }
    },
    {
     "sampler": 55,
     "target": {
      "node": 16,
      "path": "rotation"
     }
    },
    {
     "sampler": 56,
     "target": {
      "node": 16,
      "path": "scale"
     }
    },
    {
     "sampler": 57,
     "target": {
      "node": 15,
      "path": "translation"
     }
    },
    {
     "sampler": 58,
     "target": {
      "node": 15,
      "path": "rotation"
     }
    },
    {
     "sampler": 59,
     "target": {
      "node": 15,
      "path": "scale"
     }
    },
    {
     "sampler": 60,
     "target": {
      "node": 14,
      "path": "translation"
     }
    },
    {
     "sampler": 61,
     "target": {
      "node": 14,
      "path": "rotation"
     }
    },
    {
     "sampler": 62,
     "target": {
      "node": 14,
      "path": "scale"
     }
    },
    {
     "sampler": 63,
     "target": {
      "node": 20,
      "path": "translation"
     }
    },
    {
     "sampler": 64,
     "target": {
      "node": 20,
      "path": "rotation"
     }
    },
    {
     "sampler": 65,
     "target": {
      "node": 20,
      "path": "scale"
     }
    },
    {
     "sampler": 66,
     "target": {
      "node": 19,
      "path": "translation"
     }
    },
    {
     "sampler": 67,
     "target": {
      "node": 19,
      "path": "rotation"
     }
    },
    {
     "sampler": 68,
     "target": {
      "node": 19,
      "path": "scale"
     }
    },
    {
     "sampler": 69,
     "target": {
      "node": 18,
      "path": "translation"
     }
    },
    {
     "sampler": 70,
     "target": {
      "node": 18,
      "path": "rotation"
     }
    },
    {
     "sampler": 71,
     "target": {
      "node": 18,
      "path": "scale"
     }
    },
    {
     "sampler": 72,
     "target": {
      "node": 17,
      "path": "translation"
     }
    },
    {
     "sampler": 73,
     "target": {
      "node": 17,
      "path": "rotation"
     }
    },
    {
     "sampler": 74,
     "target": {
      "node": 17,
      "path": "scale"
     }
    }
   ],
   "name": "walk",
   "samplers": [
    {
     "input": 114,
     "interpolation": "LINEAR",
     "output": 115
    },
    {
     "input": 114,
     "interpolation": "LINEAR",
     "output": 116
    },
    {
     "input": 117,
     "interpolation": "LINEAR",
     "output": 118
    },
    {
     "input": 117,
     "interpolation": "LINEAR",
     "output": 119
    },
    {
     "input": 114,
     "interpolation": "LINEAR",
     "output": 120
    },
    {
     "input": 117,
     "interpolation": "LINEAR",
     "output": 121
    },
    {
     "input": 117,
     "interpolation": "LINEAR",
     "output": 122
    },
    {
     "input": 114,
     "interpolation": "LINEAR",
     "output": 123
    },
    {
     "input": 117,
     "interpolation": "LINEAR",
     "output": 124
    },
    {
     "input": 117,
     "interpolation": "LINEAR",
     "output": 125
    },
    {
     "input": 114,
     "interpolation": "LINEAR",
     "output": 126
    },
    {
     "input": 117,
     "interpolation": "LINEAR",
     "output": 127
    },
    {
     "input": 117,
     "interpolation": "LINEAR",
     "output": 128
    },
    {
     "input": 114,
     "interpolation": "LINEAR",
     "output": 129
    },
    {
     "input": 117,
     "interpolation": "LINEAR",
     "output": 130
    },
    {
     "input": 117,
     "interpolation": "LINEAR",
     "output": 131
    },
    {
     "input": 117,
     "interpolation": "LINEAR",
     "output": 132
    },
    {
     "input": 117,
     "interpolation": "LINEAR",
     "output": 133
    },
    {
     "input": 117,
     "interpolation": "LINEAR",
     "output": 134
    },
    {
     "input": 114,
     "interpolation": "LINEAR",
     "output": 135
    },
    {
     "input": 117,
     "interpolation": "STEP",
     "output": 136
    },
    {
     "input": 117,
     "interpolation": "LINEAR",
     "output": 137
    },
    {
     "input": 114,
     "interpolation": "LINEAR",
     "output": 138
    },
    {
     "input": 117,
     "interpolation": "LINEAR",
     "output": 139
    },
    {
     "input": 117,
     "interpolation": "LINEAR",
     "output": 140
    },
    {
     "input": 114,
     "interpolation": "LINEAR",
     "output": 141
    },
    {
     "input": 117,
     "interpolation": "LINEAR",
     "output": 142
    },
    {
     "input": 117,
     "interpolation": "LINEAR",
     "output": 143
    },
    {
     "input": 114,
     "interpolation": "LINEAR",
     "output": 144
    },
    {
     "input": 117,
     "interpolation": "LINEAR",
     "output": 145
    },
    {
     "input": 117,
     "interpolation": "LINEAR",
     "output": 146
    },
    {
     "input": 117,
     "interpolation": "LINEAR",
     "output": 147
    },
    {
     "input": 117,
     "interpolation": "LINEAR",
     "output": 148
    },
    {
     "input": 117,
     "interpolation": "LINEAR",
     "output": 149
    },
    {
     "input": 114,
     "interpolation": "LINEAR",
     "output": 150
    },
    {
     "input": 117,
     "interpolation": "LINEAR",
     "output": 151
    },
    {
     "input": 117,
     "interpolation": "LINEAR",
     "output": 152
    },
    {
     "input": 114,
     "interpolation": "LINEAR",
     "output": 153
    },
    {
     "input": 117,
     "interpolation": "STEP",
     "output": 154
    },
    {
     "input": 117,
     "interpolation": "LINEAR",
     "output": 155
    },
    {
     "input": 114,
     "interpolation": "LINEAR",
     "output": 156
    },
    {
     "input": 117,
     "interpolation": "LINEAR",
     "output": 157
    },
    {
     "input": 117,
     "interpolation": "LINEAR",
     "output": 158
    },
    {
     "input": 114,
     "interpolation": "LINEAR",
     "output": 159
    },
    {
     "input": 117,
     "interpolation": "LINEAR",
     "output": 160
    },
    {
     "input": 117,
     "interpolation": "LINEAR",
     "output": 161
    },
    {
     "input": 114,
     "interpolation": "LINEAR",
     "output": 162
    },
    {
     "input": 117,
     "interpolation": "LINEAR",
     "output": 163
    },
    {
     "input": 117,
     "interpolation": "LINEAR",
     "output": 164
    },
    {
     "input": 114,
     "interpolation": "LINEAR",
     "output": 165
    },
    {
     "input": 117,
     "interpolation": "LINEAR",
     "output": 166
    },
    {
     "input": 117,
     "interpolation": "LINEAR",
     "output": 167
    },
    {
     "input": 117,
     "interpolation": "LINEAR",
     "output": 168
    },
    {
     "input": 117,
     "interpolation": "STEP",
     "output": 169
    },
    {
     "input": 117,
     "interpolation": "LINEAR",
     "output": 170
    },
    {
     "input": 114,
     "interpolation": "LINEAR",
     "output": 171
    },
    {
     "input": 117,
     "interpolation": "LINEAR",
     "output": 172
    },
    {
     "input": 117,
     "interpolation": "LINEAR",
     "output": 173
    },
    {
     "input": 114,
     "interpolation": "LINEAR",
     "output": 174
    },
    {
     "input": 117,
     "interpolation": "LINEAR",
     "output": 175
    },
    {
     "input": 117,
     "interpolation": "LINEAR",
     "output": 176
    },
    {
     "input": 117,
     "interpolation": "LINEAR",
     "output": 177
    },
    {
     "input": 117,
     "interpolation": "STEP",
     "output": 178
    },
    {
     "input": 117,
     "interpolation": "LINEAR",
     "output": 179
    },
    {
     "input": 114,
     "interpolation": "LINEAR",
     "output": 180
    },
    {
     "input": 117,
     "interpolation": "LINEAR",
     "output": 181
    },
    {
     "input": 117,
     "interpolation": "LINEAR",
     "output": 182
    },
    {
     "input": 114,
     "interpolation": "LINEAR",
     "output": 183
    },
    {
     "input": 117,
     "interpolation": "LINEAR",
     "output": 184
    },
    {
     "input": 117,
     "interpolation": "LINEAR",
     "output": 185
    },
    {
     "input": 114,
     "interpolation": "LINEAR",
     "output": 186
    },
    {
     "input": 117,
     "interpolation": "LINEAR",
     "output": 187
    },
    {
     "input": 117,
     "interpolation": "LINEAR",
     "output": 188
    },
    {
     "input": 117,
     "interpolation": "LINEAR",
     "output": 189
    },
    {
     "input": 117,
     "interpolation": "LINEAR",
     "output": 190
    }
   ]
  }
 ],
 "materials": [
  {
   "doubleSided": true,
   "name": "StoneGolem",
   "pbrMetallicRoughness": {
    "metallicFactor": 0,
    "roughnessFactor": 0.8899999856948853,
    "baseColorTexture": {
     "index": 0
    }
   }
  }
 ],
 "meshes": [
  {
   "name": "mesh.006",
   "primitives": [
    {
     "attributes": {
      "POSITION": 0,
      "NORMAL": 1,
      "TEXCOORD_0": 2,
      "JOINTS_0": 3,
      "WEIGHTS_0": 4
     },
     "indices": 5,
     "material": 0
    }
   ]
  },
  {
   "name": "mesh.001",
   "primitives": [
    {
     "attributes": {
      "POSITION": 7,
      "NORMAL": 8,
      "TEXCOORD_0": 9,
      "JOINTS_0": 10,
      "WEIGHTS_0": 11
     },
     "indices": 12,
     "material": 0
    }
   ]
  },
  {
   "name": "mesh.002",
   "primitives": [
    {
     "attributes": {
      "POSITION": 13,
      "NORMAL": 14,
      "TEXCOORD_0": 15,
      "JOINTS_0": 16,
      "WEIGHTS_0": 17
     },
     "indices": 18,
     "material": 0
    }
   ]
  },
  {
   "name": "mesh.004",
   "primitives": [
    {
     "attributes": {
      "POSITION": 19,
      "NORMAL": 20,
      "TEXCOORD_0": 21,
      "JOINTS_0": 22,
      "WEIGHTS_0": 23
     },
     "indices": 24,
     "material": 0
    }
   ]
  },
  {
   "name": "mesh.003",
   "primitives": [
    {
     "attributes": {
      "POSITION": 25,
      "NORMAL": 26,
      "TEXCOORD_0": 27,
      "JOINTS_0": 28,
      "WEIGHTS_0": 29
     },
     "indices": 30,
     "material": 0
    }
   ]
  },
  {
   "name": "mesh.005",
   "primitives": [
    {
     "attributes": {
      "POSITION": 31,
      "NORMAL": 32,
      "TEXCOORD_0": 33,
      "JOINTS_0": 34,
      "WEIGHTS_0": 35
     },
     "indices": 36,
     "material": 0
    }
   ]
  }
 ],
 "skins": [
  {
   "inverseBindMatrices": 6,
   "joints": [
    24,
    4,
    3,
    2,
    1,
    0,
    9,
    8,
    7,
    6,
    5,
    23,
    22,
    21,
    13,
    12,
    11,
    10,
    16,
    15,
    14,
    20,
    19,
    18,
    17
   ],
   "name": "Armature"
  }
 ],
 "accessors": [
  {
   "bufferView": 0,
   "componentType": 5126,
   "count": 42498,
   "max": [
    0.5260054469108582,
    0.8666819334030151,
    0.2395469844341278
   ],
   "min": [
    -0.5398450493812561,
    -0.29297736287117004,
    -0.28545400500297546
   ],
   "type": "VEC3"
  },
  {
   "bufferView": 1,
   "componentType": 5126,
   "count": 42498,
   "type": "VEC3"
  },
  {
   "bufferView": 2,
   "componentType": 5126,
   "count": 42498,
   "type": "VEC2"
  },
  {
   "bufferView": 3,
   "componentType": 5121,
   "count": 42498,
   "type": "VEC4"
  },
  {
   "bufferView": 4,
   "componentType": 5126,
   "count": 42498,
   "type": "VEC4"
  },
  {
   "bufferView": 5,
   "componentType": 5123,
   "count": 225639,
   "type": "SCALAR"
  },
  {
   "bufferView": 6,
   "componentType": 5126,
   "count": 25,
   "type": "MAT4"
  },
  {
   "bufferView": 7,
   "componentType": 5126,
   "count": 4142,
   "max": [
    0.19678495824337006,
    0.9483150243759155,
    0.12175098806619644
   ],
   "min": [
    -0.1172834113240242,
    0.6909388899803162,
    -0.17771261930465698
   ],
   "type": "VEC3"
  },
  {
   "bufferView": 8,
   "componentType": 5126,
   "count": 4142,
   "type": "VEC3"
  },
  {
   "bufferView": 9,
   "componentType": 5126,
   "count": 4142,
   "type": "VEC2"
  },
  {
   "bufferView": 10,
   "componentType": 5121,
   "count": 4142,
   "type": "VEC4"
  },
  {
   "bufferView": 11,
   "componentType": 5126,
   "count": 4142,
   "type": "VEC4"
  },
  {
   "bufferView": 12,
   "componentType": 5123,
   "count": 18954,
   "type": "SCALAR"
  },
  {
   "bufferView": 13,
   "componentType": 5126,
   "count": 10529,
   "max": [
    0.6096137762069702,
    0.35673972964286804,
    0.17665481567382812
   ],
   "min": [
    0.3688693642616272,
    -0.4676746129989624,
    -0.2708832323551178
   ],
   "type": "VEC3"
  },
  {
   "bufferView": 14,
   "componentType": 5126,
   "count": 10529,
   "type": "VEC3"
  },
  {
   "bufferView": 15,
   "componentType": 5126,
   "count": 10529,
   "type": "VEC2"
  },
  {
   "bufferView": 16,
   "componentType": 5121,
   "count": 10529,
   "type": "VEC4"
  },
  {
   "bufferView": 17,
   "componentType": 5126,
   "count": 10529,
   "type": "VEC4"
  },
  {
   "bufferView": 18,
   "componentType": 5123,
   "count": 57444,
   "type": "SCALAR"
  },
  {
   "bufferView": 19,
   "componentType": 5126,
   "count": 14586,
   "max": [
    0.471591979265213,
    -0.27608200907707214,
    0.2559981048107147
   ],
   "min": [
    0.062151871621608734,
    -0.9486009478569031,
    -0.2643356919288635
   ],
   "type": "VEC3"
  },
  {
   "bufferView": 20,
   "componentType": 5126,
   "count": 14586,
   "type": "VEC3"
  },
  {
   "bufferView": 21,
   "componentType": 5126,
   "count": 14586,
   "type": "VEC2"
  },
  {
   "bufferView": 22,
   "componentType": 5121,
   "count": 14586,
   "type": "VEC4"
  },
  {
   "bufferView": 23,
   "componentType": 5126,
   "count": 14586,
   "type": "VEC4"
  },
  {
   "bufferView": 24,
   "componentType": 5123,
   "count": 80460,
   "type": "SCALAR"
  },
  {
   "bufferView": 25,
   "componentType": 5126,
   "count": 8338,
   "max": [
    -0.26890552043914795,
    0.3603827953338623,
    0.1887081265449524
   ],
   "min": [
    -0.6114721298217773,
    -0.44956475496292114,
    -0.2764520049095154
   ],
   "type": "VEC3"
  },
  {
   "bufferView": 26,
   "componentType": 5126,
   "count": 8338,
   "type": "VEC3"
  },
  {
   "bufferView": 27,
   "componentType": 5126,
   "count": 8338,
   "type": "VEC2"
  },
  {
   "bufferView": 28,
   "componentType": 5121,
   "count": 8338,
   "type": "VEC4"
  },
  {
   "bufferView": 29,
   "componentType": 5126,
   "count": 8338,
   "type": "VEC4"
  },
  {
   "bufferView": 30,
   "componentType": 5123,
   "count": 44748,
   "type": "SCALAR"
  },
  {
   "bufferView": 31,
   "componentType": 5126,
   "count": 13353,
   "max": [
    -0.02265528216958046,
    -0.2753615975379944,
    0.29673147201538086
   ],
   "min": [
    -0.45826858282089233,
    -0.9509126543998718,
    -0.2557356357574463
   ],
   "type": "VEC3"
  },
  {
   "bufferView": 32,
   "componentType": 5126,
   "count": 13353,
   "type": "VEC3"
  },
  {
   "bufferView": 33,
   "componentType": 5126,
   "count": 13353,
   "type": "VEC2"
  },
  {
   "bufferView": 34,
   "componentType": 5121,
   "count": 13353,
   "type": "VEC4"
  },
  {
   "bufferView": 35,
   "componentType": 5126,
   "count": 13353,
   "type": "VEC4"
  },
  {
   "bufferView": 36,
   "componentType": 5123,
   "count": 73320,
   "type": "SCALAR"
  },
  {
   "bufferView": 37,
   "componentType": 5126,
   "count": 95,
   "max": [
    3.9166666666666665
   ],
   "min": [
    0
   ],
   "type": "SCALAR"
  },
  {
   "bufferView": 38,
   "componentType": 5126,
   "count": 95,
   "type": "VEC3"
  },
  {
   "bufferView": 39,
   "componentType": 5126,
   "count": 95,
   "type": "VEC4"
  },
  {
   "bufferView": 40,
   "componentType": 5126,
   "count": 2,
   "max": [
    3.9166666666666665
   ],
   "min": [
    0
   ],
   "type": "SCALAR"
  },
  {
   "bufferView": 41,
   "componentType": 5126,
   "count": 2,
   "type": "VEC3"
  },
  {
   "bufferView": 42,
   "componentType": 5126,
   "count": 2,
   "type": "VEC3"
  },
  {
   "bufferView": 43,
   "componentType": 5126,
   "count": 95,
   "type": "VEC4"
  },
  {
   "bufferView": 44,
   "componentType": 5126,
   "count": 2,
   "type": "VEC3"
  },
  {
   "bufferView": 45,
   "componentType": 5126,
   "count": 2,
   "type": "VEC3"
  },
  {
   "bufferView": 46,
   "componentType": 5126,
   "count": 95,
   "type": "VEC4"
  },
  {
   "bufferView": 47,
   "componentType": 5126,
   "count": 2,
   "type": "VEC3"
  },
  {
   "bufferView": 48,
   "componentType": 5126,
   "count": 2,
   "type": "VEC3"
  },
  {
   "bufferView": 49,
   "componentType": 5126,
   "count": 95,
   "type": "VEC4"
  },
  {
   "bufferView": 50,
   "componentType": 5126,
   "count": 2,
   "type": "VEC3"
  },
  {
   "bufferView": 51,
   "componentType": 5126,
   "count": 2,
   "type": "VEC3"
  },
  {
   "bufferView": 52,
   "componentType": 5126,
   "count": 95,
   "type": "VEC4"
  },
  {
   "bufferView": 53,
   "componentType": 5126,
   "count": 2,
   "type": "VEC3"
  },
  {
   "bufferView": 54,
   "componentType": 5126,
   "count": 2,
   "type": "VEC3"
  },
  {
   "bufferView": 55,
   "componentType": 5126,
   "count": 2,
   "type": "VEC4"
  },
  {
   "bufferView": 56,
   "componentType": 5126,
   "count": 2,
   "type": "VEC3"
  },
  {
   "bufferView": 57,
   "componentType": 5126,
   "count": 2,
   "type": "VEC3"
  },
  {
   "bufferView": 58,
   "componentType": 5126,
   "count": 95,
   "type": "VEC4"
  },
  {
   "bufferView": 59,
   "componentType": 5126,
   "count": 2,
   "type": "VEC3"
  },
  {
   "bufferView": 60,
   "componentType": 5126,
   "count": 2,
   "type": "VEC3"
  },
  {
   "bufferView": 61,
   "componentType": 5126,
   "count": 95,
   "type": "VEC4"
  },
  {
   "bufferView": 62,
   "componentType": 5126,
   "count": 2,
   "type": "VEC3"
  },
  {
   "bufferView": 63,
   "componentType": 5126,
   "count": 2,
   "type": "VEC3"
  },
  {
   "bufferView": 64,
   "componentType": 5126,
   "count": 95,
   "type": "VEC4"
  },
  {
   "bufferView": 65,
   "componentType": 5126,
   "count": 2,
   "type": "VEC3"
  },
  {
   "bufferView": 66,
   "componentType": 5126,
   "count": 2,
   "type": "VEC3"
  },
  {
   "bufferView": 67,
   "componentType": 5126,
   "count": 95,
   "type": "VEC4"
  },
  {
   "bufferView": 68,
   "componentType": 5126,
   "count": 2,
   "type": "VEC3"
  },
  {
   "bufferView": 69,
   "componentType": 5126,
   "count": 2,
   "type": "VEC3"
  },
  {
   "bufferView": 70,
   "componentType": 5126,
   "count": 2,
   "type": "VEC4"
  },
  {
   "bufferView": 71,
   "componentType": 5126,
   "count": 2,
   "type": "VEC3"
  },
  {
   "bufferView": 72,
   "componentType": 5126,
   "count": 2,
   "type": "VEC3"
  },
  {
   "bufferView": 73,
   "componentType": 5126,
   "count": 95,
   "type": "VEC4"
  },
  {
   "bufferView": 74,
   "componentType": 5126,
   "count": 2,
   "type": "VEC3"
  },
  {
   "bufferView": 75,
   "componentType": 5126,
   "count": 2,
   "type": "VEC3"
  },
  {
   "bufferView": 76,
   "componentType": 5126,
   "count": 95,
   "type": "VEC4"
  },
  {
   "bufferView": 77,
   "componentType": 5126,
   "count": 2,
   "type": "VEC3"
  },
  {
   "bufferView": 78,
   "componentType": 5126,
   "count": 2,
   "type": "VEC3"
  },
  {
   "bufferView": 79,
   "componentType": 5126,
   "count": 95,
   "type": "VEC4"
  },
  {
   "bufferView": 80,
   "componentType": 5126,
   "count": 2,
   "type": "VEC3"
  },
  {
   "bufferView": 81,
   "componentType": 5126,
   "count": 2,
   "type": "VEC3"
  },
  {
   "bufferView": 82,
   "componentType": 5126,
   "count": 95,
   "type": "VEC4"
  },
  {
   "bufferView": 83,
   "componentType": 5126,
   "count": 2,
   "type": "VEC3"
  },
  {
   "bufferView": 84,
   "componentType": 5126,
   "count": 2,
   "type": "VEC3"
  },
  {
   "bufferView": 85,
   "componentType": 5126,
   "count": 95,
   "type": "VEC4"
  },
  {
   "bufferView": 86,
   "componentType": 5126,
   "count": 2,
   "type": "VEC3"
  },
  {
   "bufferView": 87,
   "componentType": 5126,
   "count": 2,
   "type": "VEC3"
  },
  {
   "bufferView": 88,
   "componentType": 5126,
   "count": 95,
   "type": "VEC4"
  },
  {
   "bufferView": 89,
   "componentType": 5126,
   "count": 2,
   "type": "VEC3"
  },
  {
   "bufferView": 90,
   "componentType": 5126,
   "count": 2,
   "type": "VEC3"
  },
  {
   "bufferView": 91,
   "componentType": 5126,
   "count": 2,
   "type": "VEC4"
  },
  {
   "bufferView": 92,
   "componentType": 5126,
   "count": 2,
   "type": "VEC3"
  },
  {
   "bufferView": 93,
   "componentType": 5126,
   "count": 2,
   "type": "VEC3"
  },
  {
   "bufferView": 94,
   "componentType": 5126,
   "count": 95,
   "type": "VEC4"
  },
  {
   "bufferView": 95,
   "componentType": 5126,
   "count": 2,
   "type": "VEC3"
  },
  {
   "bufferView": 96,
   "componentType": 5126,
   "count": 2,
   "type": "VEC3"
  },
  {
   "bufferView": 97,
   "componentType": 5126,
   "count": 95,
   "type": "VEC4"
  },
  {
   "bufferView": 98,
   "componentType": 5126,
   "count": 2,
   "type": "VEC3"
  },
  {
   "bufferView": 99,
   "componentType": 5126,
   "count": 2,
   "type": "VEC3"
  },
  {
   "bufferView": 100,
   "componentType": 5126,
   "count": 2,
   "type": "VEC4"
  },
  {
   "bufferView": 101,
   "componentType": 5126,
   "count": 2,
   "type": "VEC3"
  },
  {
   "bufferView": 102,
   "componentType": 5126,
   "count": 2,
   "type": "VEC3"
  },
  {
   "bufferView": 103,
   "componentType": 5126,
   "count": 95,
   "type": "VEC4"
  },
  {
   "bufferView": 104,
   "componentType": 5126,
   "count": 2,
   "type": "VEC3"
  },
  {
   "bufferView": 105,
   "componentType": 5126,
   "count": 2,
   "type": "VEC3"
  },
  {
   "bufferView": 106,
   "componentType": 5126,
   "count": 95,
   "type": "VEC4"
  },
  {
   "bufferView": 107,
   "componentType": 5126,
   "count": 2,
   "type": "VEC3"
  },
  {
   "bufferView": 108,
   "componentType": 5126,
   "count": 2,
   "type": "VEC3"
  },
  {
   "bufferView": 109,
   "componentType": 5126,
   "count": 95,
   "type": "VEC4"
  },
  {
   "bufferView": 110,
   "componentType": 5126,
   "count": 2,
   "type": "VEC3"
  },
  {
   "bufferView": 111,
   "componentType": 5126,
   "count": 2,
   "type": "VEC3"
  },
  {
   "bufferView": 112,
   "componentType": 5126,
   "count": 2,
   "type": "VEC4"
  },
  {
   "bufferView": 113,
   "componentType": 5126,
   "count": 2,
   "type": "VEC3"
  },
  {
   "bufferView": 114,
   "componentType": 5126,
   "count": 70,
   "max": [
    2.875
   ],
   "min": [
    0
   ],
   "type": "SCALAR"
  },
  {
   "bufferView": 115,
   "componentType": 5126,
   "count": 70,
   "type": "VEC3"
  },
  {
   "bufferView": 116,
   "componentType": 5126,
   "count": 70,
   "type": "VEC4"
  },
  {
   "bufferView": 117,
   "componentType": 5126,
   "count": 2,
   "max": [
    2.875
   ],
   "min": [
    0
   ],
   "type": "SCALAR"
  },
  {
   "bufferView": 118,
   "componentType": 5126,
   "count": 2,
   "type": "VEC3"
  },
  {
   "bufferView": 119,
   "componentType": 5126,
   "count": 2,
   "type": "VEC3"
  },
  {
   "bufferView": 120,
   "componentType": 5126,
   "count": 70,
   "type": "VEC4"
  },
  {
   "bufferView": 121,
   "componentType": 5126,
   "count": 2,
   "type": "VEC3"
  },
  {
   "bufferView": 122,
   "componentType": 5126,
   "count": 2,
   "type": "VEC3"
  },
  {
   "bufferView": 123,
   "componentType": 5126,
   "count": 70,
   "type": "VEC4"
  },
  {
   "bufferView": 124,
   "componentType": 5126,
   "count": 2,
   "type": "VEC3"
  },
  {
   "bufferView": 125,
   "componentType": 5126,
   "count": 2,
   "type": "VEC3"
  },
  {
   "bufferView": 126,
   "componentType": 5126,
   "count": 70,
   "type": "VEC4"
  },
  {
   "bufferView": 127,
   "componentType": 5126,
   "count": 2,
   "type": "VEC3"
  },
  {
   "bufferView": 128,
   "componentType": 5126,
   "count": 2,
   "type": "VEC3"
  },
  {
   "bufferView": 129,
   "componentType": 5126,
   "count": 70,
   "type": "VEC4"
  },
  {
   "bufferView": 130,
   "componentType": 5126,
   "count": 2,
   "type": "VEC3"
  },
  {
   "bufferView": 131,
   "componentType": 5126,
   "count": 2,
   "type": "VEC3"
  },
  {
   "bufferView": 132,
   "componentType": 5126,
   "count": 2,
   "type": "VEC4"
  },
  {
   "bufferView": 133,
   "componentType": 5126,
   "count": 2,
   "type": "VEC3"
  },
  {
   "bufferView": 134,
   "componentType": 5126,
   "count": 2,
   "type": "VEC3"
  },
  {
   "bufferView": 135,
   "componentType": 5126,
   "count": 70,
   "type": "VEC4"
  },
  {
   "bufferView": 136,
   "componentType": 5126,
   "count": 2,
   "type": "VEC3"
  },
  {
   "bufferView": 137,
   "componentType": 5126,
   "count": 2,
   "type": "VEC3"
  },
  {
   "bufferView": 138,
   "componentType": 5126,
   "count": 70,
   "type": "VEC4"
  },
  {
   "bufferView": 139,
   "componentType": 5126,
   "count": 2,
   "type": "VEC3"
  },
  {
   "bufferView": 140,
   "componentType": 5126,
   "count": 2,
   "type": "VEC3"
  },
  {
   "bufferView": 141,
   "componentType": 5126,
   "count": 70,
   "type": "VEC4"
  },
  {
   "bufferView": 142,
   "componentType": 5126,
   "count": 2,
   "type": "VEC3"
  },
  {
   "bufferView": 143,
   "componentType": 5126,
   "count": 2,
   "type": "VEC3"
  },
  {
   "bufferView": 144,
   "componentType": 5126,
   "count": 70,
   "type": "VEC4"
  },
  {
   "bufferView": 145,
   "componentType": 5126,
   "count": 2,
   "type": "VEC3"
  },
  {
   "bufferView": 146,
   "componentType": 5126,
   "count": 2,
   "type": "VEC3"
  },
  {
   "bufferView": 147,
   "componentType": 5126,
   "count": 2,
   "type": "VEC4"
  },
  {
   "bufferView": 148,
   "componentType": 5126,
   "count": 2,
   "type": "VEC3"
  },
  {
   "bufferView": 149,
   "componentType": 5126,
   "count": 2,
   "type": "VEC3"
  },
  {
   "bufferView": 150,
   "componentType": 5126,
   "count": 70,
   "type": "VEC4"
  },
  {
   "bufferView": 151,
   "componentType": 5126,
   "count": 2,
   "type": "VEC3"
  },
  {
   "bufferView": 152,
   "componentType": 5126,
   "count": 2,
   "type": "VEC3"
  },
  {
   "bufferView": 153,
   "componentType": 5126,
   "count": 70,
   "type": "VEC4"
  },
  {
   "bufferView": 154,
   "componentType": 5126,
   "count": 2,
   "type": "VEC3"
  },
  {
   "bufferView": 155,
   "componentType": 5126,
   "count": 2,
   "type": "VEC3"
  },
  {
   "bufferView": 156,
   "componentType": 5126,
   "count": 70,
   "type": "VEC4"
  },
  {
   "bufferView": 157,
   "componentType": 5126,
   "count": 2,
   "type": "VEC3"
  },
  {
   "bufferView": 158,
   "componentType": 5126,
   "count": 2,
   "type": "VEC3"
  },
  {
   "bufferView": 159,
   "componentType": 5126,
   "count": 70,
   "type": "VEC4"
  },
  {
   "bufferView": 160,
   "componentType": 5126,
   "count": 2,
   "type": "VEC3"
  },
  {
   "bufferView": 161,
   "componentType": 5126,
   "count": 2,
   "type": "VEC3"
  },
  {
   "bufferView": 162,
   "componentType": 5126,
   "count": 70,
   "type": "VEC4"
  },
  {
   "bufferView": 163,
   "componentType": 5126,
   "count": 2,
   "type": "VEC3"
  },
  {
   "bufferView": 164,
   "componentType": 5126,
   "count": 2,
   "type": "VEC3"
  },
  {
   "bufferView": 165,
   "componentType": 5126,
   "count": 70,
   "type": "VEC4"
  },
  {
   "bufferView": 166,
   "componentType": 5126,
   "count": 2,
   "type": "VEC3"
  },
  {
   "bufferView": 167,
   "componentType": 5126,
   "count": 2,
   "type": "VEC3"
  },
  {
   "bufferView": 168,
   "componentType": 5126,
   "count": 2,
   "type": "VEC4"
  },
  {
   "bufferView": 169,
   "componentType": 5126,
   "count": 2,
   "type": "VEC3"
  },
  {
   "bufferView": 170,
   "componentType": 5126,
   "count": 2,
   "type": "VEC3"
  },
  {
   "bufferView": 171,
   "componentType": 5126,
   "count": 70,
   "type": "VEC4"
  },
  {
   "bufferView": 172,
   "componentType": 5126,
   "count": 2,
   "type": "VEC3"
  },
  {
   "bufferView": 173,
   "componentType": 5126,
   "count": 2,
   "type": "VEC3"
  },
  {
   "bufferView": 174,
   "componentType": 5126,
   "count": 70,
   "type": "VEC4"
  },
  {
   "bufferView": 175,
   "componentType": 5126,
   "count": 2,
   "type": "VEC3"
  },
  {
   "bufferView": 176,
   "componentType": 5126,
   "count": 2,
   "type": "VEC3"
  },
  {
   "bufferView": 177,
   "componentType": 5126,
   "count": 2,
   "type": "VEC4"
  },
  {
   "bufferView": 178,
   "componentType": 5126,
   "count": 2,
   "type": "VEC3"
  },
  {
   "bufferView": 179,
   "componentType": 5126,
   "count": 2,
   "type": "VEC3"
  },
  {
   "bufferView": 180,
   "componentType": 5126,
   "count": 70,
   "type": "VEC4"
  },
  {
   "bufferView": 181,
   "componentType": 5126,
   "count": 2,
   "type": "VEC3"
  },
  {
   "bufferView": 182,
   "componentType": 5126,
   "count": 2,
   "type": "VEC3"
  },
  {
   "bufferView": 183,
   "componentType": 5126,
   "count": 70,
   "type": "VEC4"
  },
  {
   "bufferView": 184,
   "componentType": 5126,
   "count": 2,
   "type": "VEC3"
  },
  {
   "bufferView": 185,
   "componentType": 5126,
   "count": 2,
   "type": "VEC3"
  },
  {
   "bufferView": 186,
   "componentType": 5126,
   "count": 70,
   "type": "VEC4"
  },
  {
   "bufferView": 187,
   "componentType": 5126,
   "count": 2,
   "type": "VEC3"
  },
  {
   "bufferView": 188,
   "componentType": 5126,
   "count": 2,
   "type": "VEC3"
  },
  {
   "bufferView": 189,
   "componentType": 5126,
   "count": 2,
   "type": "VEC4"
  },
  {
   "bufferView": 190,
   "componentType": 5126,
   "count": 2,
   "type": "VEC3"
  }
 ],
 "bufferViews": [
  {
   "buffer": 0,
   "byteLength": 509976,
   "byteOffset": 0,
   "target": 34962
  },
  {
   "buffer": 0,
   "byteLength": 509976,
   "byteOffset": 509976,
   "target": 34962
  },
  {
   "buffer": 0,
   "byteLength": 339984,
   "byteOffset": 1019952,
   "target": 34962
  },
  {
   "buffer": 0,
   "byteLength": 169992,
   "byteOffset": 1359936,
   "target": 34962
  },
  {
   "buffer": 0,
   "byteLength": 679968,
   "byteOffset": 1529928,
   "target": 34962
  },
  {
   "buffer": 0,
   "byteLength": 451278,
   "byteOffset": 2209896,
   "target": 34963
  },
  {
   "buffer": 0,
   "byteLength": 1600,
   "byteOffset": 2661176
  },
  {
   "buffer": 0,
   "byteLength": 49704,
   "byteOffset": 2662776,
   "target": 34962
  },
  {
   "buffer": 0,
   "byteLength": 49704,
   "byteOffset": 2712480,
   "target": 34962
  },
  {
   "buffer": 0,
   "byteLength": 33136,
   "byteOffset": 2762184,
   "target": 34962
  },
  {
   "buffer": 0,
   "byteLength": 16568,
   "byteOffset": 2795320,
   "target": 34962
  },
  {
   "buffer": 0,
   "byteLength": 66272,
   "byteOffset": 2811888,
   "target": 34962
  },
  {
   "buffer": 0,
   "byteLength": 37908,
   "byteOffset": 2878160,
   "target": 34963
  },
  {
   "buffer": 0,
   "byteLength": 126348,
   "byteOffset": 2916068,
   "target": 34962
  },
  {
   "buffer": 0,
   "byteLength": 126348,
   "byteOffset": 3042416,
   "target": 34962
  },
  {
   "buffer": 0,
   "byteLength": 84232,
   "byteOffset": 3168764,
   "target": 34962
  },
  {
   "buffer": 0,
   "byteLength": 42116,
   "byteOffset": 3252996,
   "target": 34962
  },
  {
   "buffer": 0,
   "byteLength": 168464,
   "byteOffset": 3295112,
   "target": 34962
  },
  {
   "buffer": 0,
   "byteLength": 114888,
   "byteOffset": 3463576,
   "target": 34963
  },
  {
   "buffer": 0,
   "byteLength": 175032,
   "byteOffset": 3578464,
   "target": 34962
  },
  {
   "buffer": 0,
   "byteLength": 175032,
   "byteOffset": 3753496,
   "target": 34962
  },
  {
   "buffer": 0,
   "byteLength": 116688,
   "byteOffset": 3928528,
   "target": 34962
  },
  {
   "buffer": 0,
   "byteLength": 58344,
   "byteOffset": 4045216,
   "target": 34962
  },
  {
   "buffer": 0,
   "byteLength": 233376,
   "byteOffset": 4103560,
   "target": 34962
  },
  {
   "buffer": 0,
   "byteLength": 160920,
   "byteOffset": 4336936,
   "target": 34963
  },
  {
   "buffer": 0,
   "byteLength": 100056,
   "byteOffset": 4497856,
   "target": 34962
  },
  {
   "buffer": 0,
   "byteLength": 100056,
   "byteOffset": 4597912,
   "target": 34962
  },
  {
   "buffer": 0,
   "byteLength": 66704,
   "byteOffset": 4697968,
   "target": 34962
  },
  {
   "buffer": 0,
   "byteLength": 33352,
   "byteOffset": 4764672,
   "target": 34962
  },
  {
   "buffer": 0,
   "byteLength": 133408,
   "byteOffset": 4798024,
   "target": 34962
  },
  {
   "buffer": 0,
   "byteLength": 89496,
   "byteOffset": 4931432,
   "target": 34963
  },
  {
   "buffer": 0,
   "byteLength": 160236,
   "byteOffset": 5020928,
   "target": 34962
  },
  {
   "buffer": 0,
   "byteLength": 160236,
   "byteOffset": 5181164,
   "target": 34962
  },
  {
   "buffer": 0,
   "byteLength": 106824,
   "byteOffset": 5341400,
   "target": 34962
  },
  {
   "buffer": 0,
   "byteLength": 53412,
   "byteOffset": 5448224,
   "target": 34962
  },
  {
   "buffer": 0,
   "byteLength": 213648,
   "byteOffset": 5501636,
   "target": 34962
  },
  {
   "buffer": 0,
   "byteLength": 146640,
   "byteOffset": 5715284,
   "target": 34963
  },
  {
   "buffer": 0,
   "byteLength": 380,
   "byteOffset": 5861924
  },
  {
   "buffer": 0,
   "byteLength": 1140,
   "byteOffset": 5862304
  },
  {
   "buffer": 0,
   "byteLength": 1520,
   "byteOffset": 5863444
  },
  {
   "buffer": 0,
   "byteLength": 8,
   "byteOffset": 5864964
  },
  {
   "buffer": 0,
   "byteLength": 24,
   "byteOffset": 5864972
  },
  {
   "buffer": 0,
   "byteLength": 24,
   "byteOffset": 5864996
  },
  {
   "buffer": 0,
   "byteLength": 1520,
   "byteOffset": 5865020
  },
  {
   "buffer": 0,
   "byteLength": 24,
   "byteOffset": 5866540
  },
  {
   "buffer": 0,
   "byteLength": 24,
   "byteOffset": 5866564
  },
  {
   "buffer": 0,
   "byteLength": 1520,
   "byteOffset": 5866588
  },
  {
   "buffer": 0,
   "byteLength": 24,
   "byteOffset": 5868108
  },
  {
   "buffer": 0,
   "byteLength": 24,
   "byteOffset": 5868132
  },
  {
   "buffer": 0,
   "byteLength": 1520,
   "byteOffset": 5868156
  },
  {
   "buffer": 0,
   "byteLength": 24,
   "byteOffset": 5869676
  },
  {
   "buffer": 0,
   "byteLength": 24,
   "byteOffset": 5869700
  },
  {
   "buffer": 0,
   "byteLength": 1520,
   "byteOffset": 5869724
  },
  {
   "buffer": 0,
   "byteLength": 24,
   "byteOffset": 5871244
  },
  {
   "buffer": 0,
   "byteLength": 24,
   "byteOffset": 5871268
  },
  {
   "buffer": 0,
   "byteLength": 32,
   "byteOffset": 5871292
  },
  {
   "buffer": 0,
   "byteLength": 24,
   "byteOffset": 5871324
  },
  {
   "buffer": 0,
   "byteLength": 24,
   "byteOffset": 5871348
  },
  {
   "buffer": 0,
   "byteLength": 1520,
   "byteOffset": 5871372
  },
  {
   "buffer": 0,
   "byteLength": 24,
   "byteOffset": 5872892
  },
  {
   "buffer": 0,
   "byteLength": 24,
   "byteOffset": 5872916
  },
  {
   "buffer": 0,
   "byteLength": 1520,
   "byteOffset": 5872940
  },
  {
   "buffer": 0,
   "byteLength": 24,
   "byteOffset": 5874460
  },
  {
   "buffer": 0,
   "byteLength": 24,
   "byteOffset": 5874484
  },
  {
   "buffer": 0,
   "byteLength": 1520,
   "byteOffset": 5874508
  },
  {
   "buffer": 0,
   "byteLength": 24,
   "byteOffset": 5876028
  },
  {
   "buffer": 0,
   "byteLength": 24,
   "byteOffset": 5876052
  },
  {
   "buffer": 0,
   "byteLength": 1520,
   "byteOffset": 5876076
  },
  {
   "buffer": 0,
   "byteLength": 24,
   "byteOffset": 5877596
  },
  {
   "buffer": 0,
   "byteLength": 24,
   "byteOffset": 5877620
  },
  {
   "buffer": 0,
   "byteLength": 32,
   "byteOffset": 5877644
  },
  {
   "buffer": 0,
   "byteLength": 24,
   "byteOffset": 5877676
  },
  {
   "buffer": 0,
   "byteLength": 24,
   "byteOffset": 5877700
  },
  {
   "buffer": 0,
   "byteLength": 1520,
   "byteOffset": 5877724
  },
  {
   "buffer": 0,
   "byteLength": 24,
   "byteOffset": 5879244
  },
  {
   "buffer": 0,
   "byteLength": 24,
   "byteOffset": 5879268
  },
  {
   "buffer": 0,
   "byteLength": 1520,
   "byteOffset": 5879292
  },
  {
   "buffer": 0,
   "byteLength": 24,
   "byteOffset": 5880812
  },
  {
   "buffer": 0,
   "byteLength": 24,
   "byteOffset": 5880836
  },
  {
   "buffer": 0,
   "byteLength": 1520,
   "byteOffset": 5880860
  },
  {
   "buffer": 0,
   "byteLength": 24,
   "byteOffset": 5882380
  },
  {
   "buffer": 0,
   "byteLength": 24,
   "byteOffset": 5882404
  },
  {
   "buffer": 0,
   "byteLength": 1520,
   "byteOffset": 5882428
  },
  {
   "buffer": 0,
   "byteLength": 24,
   "byteOffset": 5883948
  },
  {
   "buffer": 0,
   "byteLength": 24,
   "byteOffset": 5883972
  },
  {
   "buffer": 0,
   "byteLength": 1520,
   "byteOffset": 5883996
  },
  {
   "buffer": 0,
   "byteLength": 24,
   "byteOffset": 5885516
  },
  {
   "buffer": 0,
   "byteLength": 24,
   "byteOffset": 5885540
  },
  {
   "buffer": 0,
   "byteLength": 1520,
   "byteOffset": 5885564
  },
  {
   "buffer": 0,
   "byteLength": 24,
   "byteOffset": 5887084
  },
  {
   "buffer": 0,
   "byteLength": 24,
   "byteOffset": 5887108
  },
  {
   "buffer": 0,
   "byteLength": 32,
   "byteOffset": 5887132
  },
  {
   "buffer": 0,
   "byteLength": 24,
   "byteOffset": 5887164
  },
  {
   "buffer": 0,
   "byteLength": 24,
   "byteOffset": 5887188
  },
  {
   "buffer": 0,
   "byteLength": 1520,
   "byteOffset": 5887212
  },
  {
   "buffer": 0,
   "byteLength": 24,
   "byteOffset": 5888732
  },
  {
   "buffer": 0,
   "byteLength": 24,
   "byteOffset": 5888756
  },
  {
   "buffer": 0,
   "byteLength": 1520,
   "byteOffset": 5888780
  },
  {
   "buffer": 0,
   "byteLength": 24,
   "byteOffset": 5890300
  },
  {
   "buffer": 0,
   "byteLength": 24,
   "byteOffset": 5890324
  },
  {
   "buffer": 0,
   "byteLength": 32,
   "byteOffset": 5890348
  },
  {
   "buffer": 0,
   "byteLength": 24,
   "byteOffset": 5890380
  },
  {
   "buffer": 0,
   "byteLength": 24,
   "byteOffset": 5890404
  },
  {
   "buffer": 0,
   "byteLength": 1520,
   "byteOffset": 5890428
  },
  {
   "buffer": 0,
   "byteLength": 24,
   "byteOffset": 5891948
  },
  {
   "buffer": 0,
   "byteLength": 24,
   "byteOffset": 5891972
  },
  {
   "buffer": 0,
   "byteLength": 1520,
   "byteOffset": 5891996
  },
  {
   "buffer": 0,
   "byteLength": 24,
   "byteOffset": 5893516
  },
  {
   "buffer": 0,
   "byteLength": 24,
   "byteOffset": 5893540
  },
  {
   "buffer": 0,
   "byteLength": 1520,
   "byteOffset": 5893564
  },
  {
   "buffer": 0,
   "byteLength": 24,
   "byteOffset": 5895084
  },
  {
   "buffer": 0,
   "byteLength": 24,
   "byteOffset": 5895108
  },
  {
   "buffer": 0,
   "byteLength": 32,
   "byteOffset": 5895132
  },
  {
   "buffer": 0,
   "byteLength": 24,
   "byteOffset": 5895164
  },
  {
   "buffer": 0,
   "byteLength": 280,
   "byteOffset": 5895188
  },
  {
   "buffer": 0,
   "byteLength": 840,
   "byteOffset": 5895468
  },
  {
   "buffer": 0,
   "byteLength": 1120,
   "byteOffset": 5896308
  },
  {
   "buffer": 0,
   "byteLength": 8,
   "byteOffset": 5897428
  },
  {
   "buffer": 0,
   "byteLength": 24,
   "byteOffset": 5897436
  },
  {
   "buffer": 0,
   "byteLength": 24,
   "byteOffset": 5897460
  },
  {
   "buffer": 0,
   "byteLength": 1120,
   "byteOffset": 5897484
  },
  {
   "buffer": 0,
   "byteLength": 24,
   "byteOffset": 5898604
  },
  {
   "buffer": 0,
   "byteLength": 24,
   "byteOffset": 5898628
  },
  {
   "buffer": 0,
   "byteLength": 1120,
   "byteOffset": 5898652
  },
  {
   "buffer": 0,
   "byteLength": 24,
   "byteOffset": 5899772
  },
  {
   "buffer": 0,
   "byteLength": 24,
   "byteOffset": 5899796
  },
  {
   "buffer": 0,
   "byteLength": 1120,
   "byteOffset": 5899820
  },
  {
   "buffer": 0,
   "byteLength": 24,
   "byteOffset": 5900940
  },
  {
   "buffer": 0,
   "byteLength": 24,
   "byteOffset": 5900964
  },
  {
   "buffer": 0,
   "byteLength": 1120,
   "byteOffset": 5900988
  },
  {
   "buffer": 0,
   "byteLength": 24,
   "byteOffset": 5902108
  },
  {
   "buffer": 0,
   "byteLength": 24,
   "byteOffset": 5902132
  },
  {
   "buffer": 0,
   "byteLength": 32,
   "byteOffset": 5902156
  },
  {
   "buffer": 0,
   "byteLength": 24,
   "byteOffset": 5902188
  },
  {
   "buffer": 0,
   "byteLength": 24,
   "byteOffset": 5902212
  },
  {
   "buffer": 0,
   "byteLength": 1120,
   "byteOffset": 5902236
  },
  {
   "buffer": 0,
   "byteLength": 24,
   "byteOffset": 5903356
  },
  {
   "buffer": 0,
   "byteLength": 24,
   "byteOffset": 5903380
  },
  {
   "buffer": 0,
   "byteLength": 1120,
   "byteOffset": 5903404
  },
  {
   "buffer": 0,
   "byteLength": 24,
   "byteOffset": 5904524
  },
  {
   "buffer": 0,
   "byteLength": 24,
   "byteOffset": 5904548
  },
  {
   "buffer": 0,
   "byteLength": 1120,
   "byteOffset": 5904572
  },
  {
   "buffer": 0,
   "byteLength": 24,
   "byteOffset": 5905692
  },
  {
   "buffer": 0,
   "byteLength": 24,
   "byteOffset": 5905716
  },
  {
   "buffer": 0,
   "byteLength": 1120,
   "byteOffset": 5905740
  },
  {
   "buffer": 0,
   "byteLength": 24,
   "byteOffset": 5906860
  },
  {
   "buffer": 0,
   "byteLength": 24,
   "byteOffset": 5906884
  },
  {
   "buffer": 0,
   "byteLength": 32,
   "byteOffset": 5906908
  },
  {
   "buffer": 0,
   "byteLength": 24,
   "byteOffset": 5906940
  },
  {
   "buffer": 0,
   "byteLength": 24,
   "byteOffset": 5906964
  },
  {
   "buffer": 0,
   "byteLength": 1120,
   "byteOffset": 5906988
  },
  {
   "buffer": 0,
   "byteLength": 24,
   "byteOffset": 5908108
  },
  {
   "buffer": 0,
   "byteLength": 24,
   "byteOffset": 5908132
  },
  {
   "buffer": 0,
   "byteLength": 1120,
   "byteOffset": 5908156
  },
  {
   "buffer": 0,
   "byteLength": 24,
   "byteOffset": 5909276
  },
  {
   "buffer": 0,
   "byteLength": 24,
   "byteOffset": 5909300
  },
  {
   "buffer": 0,
   "byteLength": 1120,
   "byteOffset": 5909324
  },
  {
   "buffer": 0,
   "byteLength": 24,
   "byteOffset": 5910444
  },
  {
   "buffer": 0,
   "byteLength": 24,
   "byteOffset": 5910468
  },
  {
   "buffer": 0,
   "byteLength": 1120,
   "byteOffset": 5910492
  },
  {
   "buffer": 0,
   "byteLength": 24,
   "byteOffset": 5911612
  },
  {
   "buffer": 0,
   "byteLength": 24,
   "byteOffset": 5911636
  },
  {
   "buffer": 0,
   "byteLength": 1120,
   "byteOffset": 5911660
  },
  {
   "buffer": 0,
   "byteLength": 24,
   "byteOffset": 5912780
  },
  {
   "buffer": 0,
   "byteLength": 24,
   "byteOffset": 5912804
  },
  {
   "buffer": 0,
   "byteLength": 1120,
   "byteOffset": 5912828
  },
  {
   "buffer": 0,
   "byteLength": 24,
   "byteOffset": 5913948
  },
  {
   "buffer": 0,
   "byteLength": 24,
   "byteOffset": 5913972
  },
  {
   "buffer": 0,
   "byteLength": 32,
   "byteOffset": 5913996
  },
  {
   "buffer": 0,
   "byteLength": 24,
   "byteOffset": 5914028
  },
  {
   "buffer": 0,
   "byteLength": 24,
   "byteOffset": 5914052
  },
  {
   "buffer": 0,
   "byteLength": 1120,
   "byteOffset": 5914076
  },
  {
   "buffer": 0,
   "byteLength": 24,
   "byteOffset": 5915196
  },
  {
   "buffer": 0,
   "byteLength": 24,
   "byteOffset": 5915220
  },
  {
   "buffer": 0,
   "byteLength": 1120,
   "byteOffset": 5915244
  },
  {
   "buffer": 0,
   "byteLength": 24,
   "byteOffset": 5916364
  },
  {
   "buffer": 0,
   "byteLength": 24,
   "byteOffset": 5916388
  },
  {
   "buffer": 0,
   "byteLength": 32,
   "byteOffset": 5916412
  },
  {
   "buffer": 0,
   "byteLength": 24,
   "byteOffset": 5916444
  },
  {
   "buffer": 0,
   "byteLength": 24,
   "byteOffset": 5916468
  },
  {
   "buffer": 0,
   "byteLength": 1120,
   "byteOffset": 5916492
  },
  {
   "buffer": 0,
   "byteLength": 24,
   "byteOffset": 5917612
  },
  {
   "buffer": 0,
   "byteLength": 24,
   "byteOffset": 5917636
  },
  {
   "buffer": 0,
   "byteLength": 1120,
   "byteOffset": 5917660
  },
  {
   "buffer": 0,
   "byteLength": 24,
   "byteOffset": 5918780
  },
  {
   "buffer": 0,
   "byteLength": 24,
   "byteOffset": 5918804
  },
  {
   "buffer": 0,
   "byteLength": 1120,
   "byteOffset": 5918828
  },
  {
   "buffer": 0,
   "byteLength": 24,
   "byteOffset": 5919948
  },
  {
   "buffer": 0,
   "byteLength": 24,
   "byteOffset": 5919972
  },
  {
   "buffer": 0,
   "byteLength": 32,
   "byteOffset": 5919996
  },
  {
   "buffer": 0,
   "byteLength": 24,
   "byteOffset": 5920028
  }
 ],
 "buffers": [
  {
   "byteLength": 5920052,
   "uri": "StoneGolem.bin"
  }
 ],
 "images": [
  {
   "mimeType": "image/png",
   "name": "base_color",
   "uri": "base_color.png"
  }
 ],
 "samplers": [
  {
   "magFilter": 9729,
   "minFilter": 9987
  }
 ],
 "textures": [
  {
   "sampler": 0,
   "source": 0
  }
 ]
}