{
 "asset": {
  "generator": "Khronos glTF Blender I/O v5.2.39",
  "version": "2.0"
 },
 "scene": 0,
 "scenes": [
  {
   "name": "Scene",
   "nodes": [
    0
   ]
  }
 ],
 "nodes": [
  {
   "mesh": 0,
   "name": "Stump_RightLeg"
  }
 ],
 "materials": [
  {
   "doubleSided": true,
   "name": "StoneGolem",
   "pbrMetallicRoughness": {
    "metallicFactor": 0,
    "roughnessFactor": 0.8899999856948853,
    "baseColorTexture": {
     "index": 0
    }
   }
  }
 ],
 "meshes": [
  {
   "name": "Stump_RightLeg",
   "primitives": [
    {
     "attributes": {
      "POSITION": 0,
      "NORMAL": 1,
      "TEXCOORD_0": 2
     },
     "indices": 3,
     "material": 0
    }
   ]
  }
 ],
 "accessors": [
  {
   "bufferView": 0,
   "componentType": 5126,
   "count": 132,
   "max": [
    0.049861304461956024,
    0.4694920778274536,
    0.04423093423247337
   ],
   "min": [
    -0.04275420308113098,
    0.4491429030895233,
    -0.05382479354739189
   ],
   "type": "VEC3"
  },
  {
   "bufferView": 1,
   "componentType": 5126,
   "count": 132,
   "type": "VEC3"
  },
  {
   "bufferView": 2,
   "componentType": 5126,
   "count": 132,
   "type": "VEC2"
  },
  {
   "bufferView": 3,
   "componentType": 5123,
   "count": 390,
   "type": "SCALAR"
  }
 ],
 "bufferViews": [
  {
   "buffer": 0,
   "byteLength": 1584,
   "byteOffset": 0,
   "target": 34962
  },
  {
   "buffer": 0,
   "byteLength": 1584,
   "byteOffset": 1584,
   "target": 34962
  },
  {
   "buffer": 0,
   "byteLength": 1056,
   "byteOffset": 3168,
   "target": 34962
  },
  {
   "buffer": 0,
   "byteLength": 780,
   "byteOffset": 4224,
   "target": 34963
  }
 ],
 "buffers": [
  {
   "byteLength": 5004,
   "uri": "Stump_RightLeg.bin"
  }
 ],
 "images": [
  {
   "mimeType": "image/png",
   "name": "base_color",
   "uri": "base_color.png"
  }
 ],
 "samplers": [
  {
   "magFilter": 9729,
   "minFilter": 9987
  }
 ],
 "textures": [
  {
   "sampler": 0,
   "source": 0
  }
 ]
}