{"asset": {"generator": "Khronos glTF Blender I/O v5.2.39", "version": "2.0"}, "scene": 0, "scenes": [{"name": "Scene", "nodes": [45]}], "nodes": [{"name": "Object_42", "rotation": [0.70710688829422, 0, 0, 0.7071066498756409], "scale": [0.009999999776482582, 0.010000000707805157, 0.010000000707805157], "translation": [0, -3.8146970382513246e-06, 0]}, {"name": "Gun_L_04", "rotation": [-0.0025047599337995052, 0.707102358341217, 0.707102358341217, 0.002504835370928049], "scale": [1, 0.9999997615814209, 0.9999998807907104], "translation": [0.1572265625, -0.33611762523651123, 1.3554829359054565]}, {"name": "Minigun_L_03", "rotation": [-0.00250476086512208, 0.707102358341217, 0.707102358341217, 0.0025048351380974054], "scale": [1, 0.9999997615814209, 0.9999998807907104], "translation": [0.4864501953125, -0.3888518512248993, 0.7705219984054565]}, {"children": [1, 2], "name": "Arm_L_02", "rotation": [1.5048101431602845e-08, 2.3665827156630354e-30, -2.6469808000689474e-23, 1], "translation": [1.01507568359375, 0.9297033548355103, 0.11743273586034775]}, {"name": "Gun_R_07", "rotation": [-0.0025047145318239927, -0.7071024179458618, -0.7071022987365723, 0.0025046675000339746], "scale": [1, 1.0000003576278687, 1], "translation": [-0.1573486328125, -0.3361380696296692, 1.35540771484375]}, {"name": "Minigun_R_06", "rotation": [-0.0025047147646546364, -0.707102358341217, -0.707102358341217, 0.002504667267203331], "scale": [1, 1.0000003576278687, 1], "translation": [-0.48614501953125, -0.38496601581573486, 0.64642333984375]}, {"children": [4, 5], "name": "Arm_R_05", "rotation": [1.662176174477281e-08, 2.3665827156630354e-30, -2.6469808000689474e-23, 1], "translation": [-1.01519775390625, 0.9297033548355103, 0.11743273586034775]}, {"name": "Camera_08", "rotation": [-9.15077980607748e-05, -2.5039625484168937e-07, -0.9999962449073792, 0.0027363270055502653], "scale": [1.0000001192092896, 0.9999998807907104, 1], "translation": [0.0052490234375, -0.013656440190970898, 1.4987801313400269]}, {"name": "F1_L_016", "rotation": [-0.0026026933919638395, 0.7046869397163391, -0.7094157934188843, 0.01177952066063881], "scale": [1, 1.0000001192092896, 1], "translation": [0.007232666015625, 0.2865123748779297, -0.20354270935058594]}, {"name": "F2_L_019", "rotation": [0.49759161472320557, -0.49752235412597656, 0.5124613642692566, 0.4921965003013611], "scale": [1, 1.000000238418579, 1], "translation": [-0.2486572265625, 0.2804412841796875, -0.045520782470703125]}, {"name": "F3_L_018", "rotation": [0.4966489374637604, 0.4999304711818695, -0.49309882521629333, 0.5101596713066101], "scale": [0.9999998807907104, 1, 1], "translation": [0.2151031494140625, 0.29187679290771484, -0.03572273254394531]}, {"name": "F4_L_017", "rotation": [0.7000783085823059, 0.009689806029200554, 0.004563209135085344, 0.7139856815338135], "scale": [1, 1.0000001192092896, 1.0000001192092896], "translation": [-0.0089874267578125, 0.20873355865478516, 0.18694400787353516]}, {"name": "PistonB3_L_020", "rotation": [0.8787518739700317, 0.004036009777337313, 0.013853857293725014, 0.4770607352256775], "scale": [1, 1, 1.000000238418579], "translation": [0.005126953125, -0.03941631317138672, 0.14679527282714844]}, {"children": [8, 9, 10, 11, 12], "name": "O_L_015", "rotation": [0.32230299711227417, 0.00905497558414936, -0.0026814290322363377, 0.946589469909668], "scale": [1, 0.9999998807907104, 1.0000001192092896], "translation": [8.20159912109375e-05, 0.8827366828918457, 0.0002899169921875]}, {"name": "PistonB1_L_021", "rotation": [-0.8253187537193298, -0.004618671722710133, -0.00260648550465703, 0.5646423101425171], "scale": [1, 0.9999999403953552, 1.0000001192092896], "translation": [0.05768775939941406, -0.12898802757263184, -0.20479202270507812]}, {"name": "PistonB2_L_022", "rotation": [-0.8253187537193298, -0.00461869640275836, -0.0026064494159072638, 0.5646421909332275], "scale": [1, 1.0000001192092896, 1.000000238418579], "translation": [-0.04796409606933594, -0.12948250770568848, -0.20579767227172852]}, {"children": [13, 14, 15], "name": "Low_Leg_L_014", "rotation": [-0.7620753049850464, -0.07357873767614365, -0.09482540190219879, 0.6362668871879578], "scale": [1.0000001192092896, 1, 1.0000001192092896], "translation": [-0.01507568359375, 0.8081170320510864, -0.0068817138671875]}, {"children": [16], "name": "Mid_Leg_L_013", "rotation": [0.7698149085044861, 0.07380558550357819, 0.09054651111364365, 0.6274863481521606], "scale": [1, 1, 0.9999999403953552], "translation": [0.05463486909866333, 1.169677734375, 9.232416050508618e-05]}, {"name": "PistonU1_L_011", "rotation": [0.5730859041213989, -0.003424091963097453, 0.0016444075154140592, 0.8194864988327026], "scale": [1, 0.9999999403953552, 1], "translation": [0.09790880978107452, 0.619873046875, -0.14395064115524292]}, {"name": "PistonU2_L_012", "rotation": [0.5730859041213989, -0.0034240942914038897, 0.0016444108914583921, 0.8194864988327026], "scale": [1, 0.9999999403953552, 1], "translation": [-0.014945191331207752, 0.619873046875, -0.1439506560564041]}, {"name": "PistonU3_L_010", "rotation": [-0.1356489509344101, -3.0307413908303715e-05, 4.131797595618991e-06, 0.9907569289207458], "translation": [0.04987400397658348, 1.3408203125, 1.0235297679901123]}, {"children": [17, 18, 19, 20], "name": "Top_Leg_L_09", "rotation": [0.9440241456031799, 1.9662159900235565e-08, 5.626821675264182e-08, 0.3298763632774353], "scale": [1, 1, 0.9999999403953552], "translation": [0.77008056640625, 1.5889061614871025e-05, 0.0002449220046401024]}, {"name": "F1_R_027", "rotation": [-0.0026026966515928507, -0.7046868205070496, 0.7094159722328186, 0.01177952066063881], "scale": [1, 1, 0.9999999403953552], "translation": [-0.0072021484375, 0.2839994430541992, -0.2037220001220703]}, {"name": "F2_R_030", "rotation": [0.497591495513916, 0.4975222945213318, -0.5124614238739014, 0.49219655990600586], "scale": [1.0000001192092896, 1.0000003576278687, 1], "translation": [0.248687744140625, 0.27792835235595703, -0.04571533203125]}, {"name": "F3_R_029", "rotation": [0.4966488778591156, -0.49993041157722473, 0.4930989444255829, 0.5101597309112549], "scale": [0.9999998211860657, 0.9999999403953552, 0.9999999403953552], "translation": [-0.215087890625, 0.2893638610839844, -0.035902976989746094]}, {"name": "F4_R_028", "rotation": [0.7000783085823059, -0.009689800441265106, -0.004563204478472471, 0.713985800743103], "scale": [1, 0.9999999403953552, 0.9999999403953552], "translation": [0.0089569091796875, 0.20621681213378906, 0.18674850463867188]}, {"name": "PistonB3_R_031", "rotation": [0.878751814365387, -0.00403600325807929, -0.013853859156370163, 0.47706085443496704], "scale": [1, 1, 1.000000238418579], "translation": [-0.0051116943359375, -0.04192924499511719, 0.14661598205566406]}, {"children": [22, 23, 24, 25, 26], "name": "O_R_026", "rotation": [0.32203352451324463, -0.009054613299667835, 0.0026826895773410797, 0.9466812014579773], "scale": [0.9999998807907104, 1, 1], "translation": [-8.392333984375e-05, 0.8839397430419922, -0.0023026466369628906]}, {"children": [27], "name": "Low_Leg_R_025", "rotation": [-0.7674829959869385, 0.02069004625082016, -0.005762558430433273, 0.6407094597816467], "scale": [0.9999999403953552, 1, 1.0000001192092896], "translation": [3.0517578125e-05, 0.8091392517089844, -0.0018444061279296875]}, {"name": "PistonB1_R_033", "rotation": [0.9617750644683838, -0.021384503692388535, -0.011965476907789707, 0.2727421224117279], "scale": [1, 1, 1.0000001192092896], "translation": [0.043792724609375, 0.6265525817871094, 0.16164493560791016]}, {"name": "PistonB2_R_032", "rotation": [0.9617750644683838, -0.021384503692388535, -0.011965476907789707, 0.2727421224117279], "scale": [1, 1, 1.0000001192092896], "translation": [-0.061737060546875, 0.6315879821777344, 0.1628437042236328]}, {"name": "PistonU3_R_024", "rotation": [-0.8624540567398071, 0.023411022499203682, -0.00720673194155097, 0.5055423378944397], "translation": [-0.0079345703125, 0.9703254699707031, -0.37427330017089844]}, {"children": [28, 29, 30, 31], "name": "Mid_Leg_R_00", "rotation": [0.7748500108718872, -0.022063637152314186, 0.010661699809134007, 0.6316699981689453], "scale": [0.9999999403953552, 1, 1], "translation": [8.404895197600126e-06, 1.169677734375, 9.213403245666996e-05]}, {"name": "PistonU1_R_035", "rotation": [0.5730859041213989, 0.0034239948727190495, -0.0016443409258499742, 0.8194864988327026], "translation": [0.014962035231292248, 0.619873046875, -0.14395083487033844]}, {"name": "PistonU2_R_034", "rotation": [0.5730859041213989, 0.0034239981323480606, -0.0016443441854789853, 0.8194864988327026], "scale": [1, 1.0000001192092896, 1], "translation": [-0.09789197146892548, 0.619873046875, -0.14395084977149963]}, {"children": [32, 33, 34], "name": "Top_Leg_R_023", "rotation": [0.9440241456031799, 1.9662159900235565e-08, 5.626821675264182e-08, 0.3298763632774353], "scale": [1, 1, 0.9999999403953552], "translation": [-0.77020263671875, 1.5889061614871025e-05, 0.0002449220046401024]}, {"children": [3, 6, 7, 21, 35], "name": "Root_01", "rotation": [-1.4210854715202004e-14, -1.7114272665708086e-08, 7.940931356154169e-23, 1], "translation": [773.6466674804688, 23896.873046875, -6499.54052734375]}, {"children": [36], "name": "_rootJoint", "rotation": [-8.557151431887178e-09, 1.7114272665708086e-08, -2.928982756881431e-16, 1]}, {"mesh": 0, "name": "Object_43", "skin": 0}, {"mesh": 1, "name": "Object_44", "skin": 0}, {"mesh": 2, "name": "Object_45", "skin": 0}, {"children": [0, 38, 39, 40, 37], "name": "Object_4"}, {"children": [41], "name": "W9231", "rotation": [-0.70710688829422, 0, 0, 0.7071066498756409], "scale": [100, 99.99999237060547, 99.99999237060547]}, {"children": [42], "name": "RootNode"}, {"children": [43], "name": "W9231_Mech_Mesh_Rigged.fbx", "rotation": [0.70710688829422, 0, 0, 0.7071066498756409], "scale": [0.009999999776482582, 0.010000000707805157, 0.010000000707805157]}, {"children": [44], "name": "Sketchfab_model", "rotation": [-0.70710688829422, 0, 0, 0.7071066498756409]}], "materials": [{"doubleSided": true, "emissiveFactor": [1, 1, 1], "emissiveTexture": {"index": 0}, "name": "Blue", "normalTexture": {"index": 1}, "occlusionTexture": {"index": 2}, "pbrMetallicRoughness": {"baseColorTexture": {"index": 3}, "metallicRoughnessTexture": {"index": 2}}}, {"doubleSided": true, "emissiveFactor": [1, 1, 1], "emissiveTexture": {"index": 4}, "name": "Green", "normalTexture": {"index": 5}, "occlusionTexture": {"index": 6}, "pbrMetallicRoughness": {"baseColorTexture": {"index": 7}, "metallicRoughnessTexture": {"index": 6}}}, {"doubleSided": true, "emissiveFactor": [1, 1, 1], "emissiveTexture": {"index": 8}, "name": "Pink", "normalTexture": {"index": 9}, "occlusionTexture": {"index": 10}, "pbrMetallicRoughness": {"baseColorTexture": {"index": 11}, "metallicRoughnessTexture": {"index": 10}}}], "meshes": [{"name": "W9231_low_Blue_0", "primitives": [{"attributes": {"POSITION": 0, "NORMAL": 1, "TEXCOORD_0": 2, "TEXCOORD_1": 3, "TEXCOORD_2": 4, "JOINTS_0": 5, "WEIGHTS_0": 6}, "indices": 7, "material": 0}]}, {"name": "W9231_low_Green_0", "primitives": [{"attributes": {"POSITION": 9, "NORMAL": 10, "TEXCOORD_0": 11, "TEXCOORD_1": 12, "TEXCOORD_2": 13, "JOINTS_0": 14, "WEIGHTS_0": 15}, "indices": 16, "material": 1}]}, {"name": "W9231_low_Pink_0", "primitives": [{"attributes": {"POSITION": 17, "NORMAL": 18, "TEXCOORD_0": 19, "TEXCOORD_1": 20, "TEXCOORD_2": 21, "JOINTS_0": 22, "WEIGHTS_0": 23}, "indices": 24, "material": 2}]}], "textures": [{"sampler": 0, "source": 0}, {"sampler": 0, "source": 1}, {"sampler": 0, "source": 2}, {"sampler": 0, "source": 3}, {"sampler": 0, "source": 4}, {"sampler": 0, "source": 5}, {"sampler": 0, "source": 6}, {"sampler": 0, "source": 7}, {"sampler": 0, "source": 8}, {"sampler": 0, "source": 9}, {"sampler": 0, "source": 10}, {"sampler": 0, "source": 11}], "images": [{"mimeType": "image/png", "name": "Blue_emissive", "uri": "Blue_emissive.png"}, {"mimeType": "image/png", "name": "Blue_normal", "uri": "Blue_normal.png"}, {"mimeType": "image/png", "name": "Blue_metallicRoughness", "uri": "Blue_metallicRoughness.png"}, {"mimeType": "image/png", "name": "Blue_baseColor", "uri": "Blue_baseColor.png"}, {"mimeType": "image/png", "name": "Green_emissive", "uri": "Green_emissive.png"}, {"mimeType": "image/png", "name": "Green_normal", "uri": "Green_normal.png"}, {"mimeType": "image/png", "name": "Green_metallicRoughness", "uri": "Green_metallicRoughness.png"}, {"mimeType": "image/png", "name": "Green_baseColor", "uri": "Green_baseColor.png"}, {"mimeType": "image/png", "name": "Pink_emissive", "uri": "Pink_emissive.png"}, {"mimeType": "image/png", "name": "Pink_normal", "uri": "Pink_normal.png"}, {"mimeType": "image/png", "name": "Pink_metallicRoughness", "uri": "Pink_metallicRoughness.png"}, {"mimeType": "image/png", "name": "Pink_baseColor", "uri": "Pink_baseColor.png"}], "skins": [{"inverseBindMatrices": 8, "joints": [37, 36, 3, 1, 2, 6, 4, 5, 7, 21, 17, 16, 13, 8, 9, 10, 11, 12, 14, 15, 18, 19, 20, 35, 32, 28, 27, 22, 23, 24, 25, 26, 29, 30, 31, 33, 34], "name": "Object_4"}], "accessors": [{"bufferView": 0, "componentType": 5126, "count": 15378, "max": [774.4533081054688, -6497.65673828125, -23896.255859375], "min": [772.839111328125, -6500.44482421875, -23898.798828125], "type": "VEC3"}, {"bufferView": 1, "componentType": 5126, "count": 15378, "type": "VEC3"}, {"bufferView": 2, "componentType": 5126, "count": 15378, "type": "VEC2"}, {"bufferView": 3, "componentType": 5126, "count": 15378, "type": "VEC2"}, {"bufferView": 4, "componentType": 5126, "count": 15378, "type": "VEC2"}, {"bufferView": 5, "componentType": 5121, "count": 15378, "type": "VEC4"}, {"bufferView": 6, "componentType": 5126, "count": 15378, "type": "VEC4"}, {"bufferView": 7, "componentType": 5123, "count": 39612, "type": "SCALAR"}, {"bufferView": 8, "componentType": 5126, "count": 37, "type": "MAT4"}, {"bufferView": 9, "componentType": 5126, "count": 42958, "max": [775.5289306640625, -6497.44482421875, -23896.646484375], "min": [771.7634887695312, -6500.2177734375, -23898.87890625], "type": "VEC3"}, {"bufferView": 10, "componentType": 5126, "count": 42958, "type": "VEC3"}, {"bufferView": 11, "componentType": 5126, "count": 42958, "type": "VEC2"}, {"bufferView": 12, "componentType": 5126, "count": 42958, "type": "VEC2"}, {"bufferView": 13, "componentType": 5126, "count": 42958, "type": "VEC2"}, {"bufferView": 14, "componentType": 5121, "count": 42958, "type": "VEC4"}, {"bufferView": 15, "componentType": 5126, "count": 42958, "type": "VEC4"}, {"bufferView": 16, "componentType": 5123, "count": 121776, "type": "SCALAR"}, {"bufferView": 17, "componentType": 5126, "count": 20491, "max": [774.9281005859375, -6498.08935546875, -23894.50390625], "min": [772.3643798828125, -6500.1669921875, -23897.13671875], "type": "VEC3"}, {"bufferView": 18, "componentType": 5126, "count": 20491, "type": "VEC3"}, {"bufferView": 19, "componentType": 5126, "count": 20491, "type": "VEC2"}, {"bufferView": 20, "componentType": 5126, "count": 20491, "type": "VEC2"}, {"bufferView": 21, "componentType": 5126, "count": 20491, "type": "VEC2"}, {"bufferView": 22, "componentType": 5121, "count": 20491, "type": "VEC4"}, {"bufferView": 23, "componentType": 5126, "count": 20491, "type": "VEC4"}, {"bufferView": 24, "componentType": 5123, "count": 51108, "type": "SCALAR"}], "bufferViews": [{"buffer": 0, "byteLength": 184536, "byteOffset": 0, "target": 34962}, {"buffer": 0, "byteLength": 184536, "byteOffset": 184536, "target": 34962}, {"buffer": 0, "byteLength": 123024, "byteOffset": 369072, "target": 34962}, {"buffer": 0, "byteLength": 123024, "byteOffset": 492096, "target": 34962}, {"buffer": 0, "byteLength": 123024, "byteOffset": 615120, "target": 34962}, {"buffer": 0, "byteLength": 61512, "byteOffset": 738144, "target": 34962}, {"buffer": 0, "byteLength": 246048, "byteOffset": 799656, "target": 34962}, {"buffer": 0, "byteLength": 79224, "byteOffset": 1045704, "target": 34963}, {"buffer": 0, "byteLength": 2368, "byteOffset": 1124928}, {"buffer": 0, "byteLength": 515496, "byteOffset": 1127296, "target": 34962}, {"buffer": 0, "byteLength": 515496, "byteOffset": 1642792, "target": 34962}, {"buffer": 0, "byteLength": 343664, "byteOffset": 2158288, "target": 34962}, {"buffer": 0, "byteLength": 343664, "byteOffset": 2501952, "target": 34962}, {"buffer": 0, "byteLength": 343664, "byteOffset": 2845616, "target": 34962}, {"buffer": 0, "byteLength": 171832, "byteOffset": 3189280, "target": 34962}, {"buffer": 0, "byteLength": 687328, "byteOffset": 3361112, "target": 34962}, {"buffer": 0, "byteLength": 243552, "byteOffset": 4048440, "target": 34963}, {"buffer": 0, "byteLength": 245892, "byteOffset": 4291992, "target": 34962}, {"buffer": 0, "byteLength": 245892, "byteOffset": 4537884, "target": 34962}, {"buffer": 0, "byteLength": 163928, "byteOffset": 4783776, "target": 34962}, {"buffer": 0, "byteLength": 163928, "byteOffset": 4947704, "target": 34962}, {"buffer": 0, "byteLength": 163928, "byteOffset": 5111632, "target": 34962}, {"buffer": 0, "byteLength": 81964, "byteOffset": 5275560, "target": 34962}, {"buffer": 0, "byteLength": 327856, "byteOffset": 5357524, "target": 34962}, {"buffer": 0, "byteLength": 102216, "byteOffset": 5685380, "target": 34963}], "samplers": [{"magFilter": 9729, "minFilter": 9987}], "buffers": [{"byteLength": 5787596, "uri": "W9231Mech.bin"}]}