{
 "asset": {
  "generator": "Khronos glTF Blender I/O v5.2.39",
  "version": "2.0"
 },
 "scene": 0,
 "scenes": [
  {
   "name": "Scene",
   "nodes": [
    0
   ]
  }
 ],
 "nodes": [
  {
   "mesh": 0,
   "name": "Ground"
  }
 ],
 "materials": [
  {
   "doubleSided": true,
   "name": "StoneMat",
   "pbrMetallicRoughness": {
    "metallicFactor": 0,
    "roughnessFactor": 0.5,
    "baseColorTexture": {
     "index": 0
    }
   }
  }
 ],
 "meshes": [
  {
   "name": "StonePavement",
   "primitives": [
    {
     "attributes": {
      "POSITION": 0,
      "NORMAL": 1,
      "TEXCOORD_0": 2
     },
     "indices": 3,
     "material": 0
    }
   ]
  }
 ],
 "accessors": [
  {
   "bufferView": 0,
   "componentType": 5126,
   "count": 24,
   "max": [
    420,
    0.6000000238418579,
    324
   ],
   "min": [
    -420,
    -0.6000000238418579,
    -324
   ],
   "type": "VEC3"
  },
  {
   "bufferView": 1,
   "componentType": 5126,
   "count": 24,
   "type": "VEC3"
  },
  {
   "bufferView": 2,
   "componentType": 5126,
   "count": 24,
   "type": "VEC2"
  },
  {
   "bufferView": 3,
   "componentType": 5123,
   "count": 36,
   "type": "SCALAR"
  }
 ],
 "bufferViews": [
  {
   "buffer": 0,
   "byteLength": 288,
   "byteOffset": 0,
   "target": 34962
  },
  {
   "buffer": 0,
   "byteLength": 288,
   "byteOffset": 288,
   "target": 34962
  },
  {
   "buffer": 0,
   "byteLength": 192,
   "byteOffset": 576,
   "target": 34962
  },
  {
   "buffer": 0,
   "byteLength": 72,
   "byteOffset": 768,
   "target": 34963
  }
 ],
 "buffers": [
  {
   "byteLength": 840,
   "uri": "StonePavement.bin"
  }
 ],
 "images": [
  {
   "mimeType": "image/png",
   "name": "stone_color",
   "uri": "stone_color.png"
  }
 ],
 "samplers": [
  {
   "magFilter": 9729,
   "minFilter": 9987
  }
 ],
 "textures": [
  {
   "sampler": 0,
   "source": 0
  }
 ]
}